<svg class="main-svg" xmlns="http://www.w3.org/2000/svg" xmlns:xlink="http://www.w3.org/1999/xlink" width="700" height="450" style="" viewBox="0 0 700 450"><rect x="0" y="0" width="700" height="450" style="fill: rgb(255, 255, 255); fill-opacity: 1;"/><defs id="defs-2ce11d"><g class="clips"><clipPath id="clip2ce11dxyplot" class="plotclip"><rect width="547" height="380"/></clipPath><clipPath class="axesclip" id="clip2ce11dx"><rect x="66" y="0" width="547" height="450"/></clipPath><clipPath class="axesclip" id="clip2ce11dy"><rect x="0" y="24" width="700" height="380"/></clipPath><clipPath class="axesclip" id="clip2ce11dxy"><rect x="66" y="24" width="547" height="380"/></clipPath></g><g class="gradients"/></defs><g class="bglayer"/><g class="layer-below"><g class="imagelayer"/><g class="shapelayer"/></g><g class="cartesianlayer"><g class="subplot xy"><g class="layer-subplot"><g class="shapelayer"/><g class="imagelayer"/></g><g class="gridlayer"><g class="x"><path class="xgrid crisp" transform="translate(90.86,0)" d="M0,24v380" style="stroke: rgb(235, 235, 235); stroke-opacity: 1; stroke-width: 0.664176px;"/><path class="xgrid crisp" transform="translate(213.39,0)" d="M0,24v380" style="stroke: rgb(235, 235, 235); stroke-opacity: 1; stroke-width: 0.664176px;"/><path class="xgrid crisp" transform="translate(335.92,0)" d="M0,24v380" style="stroke: rgb(235, 235, 235); stroke-opacity: 1; stroke-width: 0.664176px;"/><path class="xgrid crisp" transform="translate(458.45,0)" d="M0,24v380" style="stroke: rgb(235, 235, 235); stroke-opacity: 1; stroke-width: 0.664176px;"/><path class="xgrid crisp" transform="translate(580.98,0)" d="M0,24v380" style="stroke: rgb(235, 235, 235); stroke-opacity: 1; stroke-width: 0.664176px;"/></g><g class="y"><path class="ygrid crisp" transform="translate(0,367.23)" d="M66,0h547" style="stroke: rgb(235, 235, 235); stroke-opacity: 1; stroke-width: 0.664176px;"/><path class="ygrid crisp" transform="translate(0,305.94)" d="M66,0h547" style="stroke: rgb(235, 235, 235); stroke-opacity: 1; stroke-width: 0.664176px;"/><path class="ygrid crisp" transform="translate(0,244.65)" d="M66,0h547" style="stroke: rgb(235, 235, 235); stroke-opacity: 1; stroke-width: 0.664176px;"/><path class="ygrid crisp" transform="translate(0,183.35)" d="M66,0h547" style="stroke: rgb(235, 235, 235); stroke-opacity: 1; stroke-width: 0.664176px;"/><path class="ygrid crisp" transform="translate(0,122.06)" d="M66,0h547" style="stroke: rgb(235, 235, 235); stroke-opacity: 1; stroke-width: 0.664176px;"/><path class="ygrid crisp" transform="translate(0,60.77)" d="M66,0h547" style="stroke: rgb(235, 235, 235); stroke-opacity: 1; stroke-width: 0.664176px;"/></g></g><g class="zerolinelayer"/><path class="xlines-below"/><path class="ylines-below"/><g class="overlines-below"/><g class="xaxislayer-below"/><g class="yaxislayer-below"/><g class="overaxes-below"/><g class="plot" transform="translate(66, 24)" clip-path="url('#clip2ce11dxyplot')"><g class="scatterlayer mlayer"><g class="trace scatter trace9ae261" style="stroke-miterlimit: 2; opacity: 1;"><g class="fills"/><g class="errorbars"/><g class="lines"><path class="js-line" style="vector-effect: non-scaling-stroke; fill: none; stroke: rgb(169, 169, 169); stroke-opacity: 1; stroke-width: 1.88976px; opacity: 1;" d="M24.86,343.23L489.33,343.23"/><path class="js-line" style="vector-effect: non-scaling-stroke; fill: none; stroke: rgb(169, 169, 169); stroke-opacity: 1; stroke-width: 1.88976px; opacity: 1;" d="M24.86,281.94L468.87,281.94"/><path class="js-line" style="vector-effect: non-scaling-stroke; fill: none; stroke: rgb(169, 169, 169); stroke-opacity: 1; stroke-width: 1.88976px; opacity: 1;" d="M24.86,220.65L522.14,220.65"/><path class="js-line" style="vector-effect: non-scaling-stroke; fill: none; stroke: rgb(169, 169, 169); stroke-opacity: 1; stroke-width: 1.88976px; opacity: 1;" d="M24.86,159.35L461.93,159.35"/><path class="js-line" style="vector-effect: non-scaling-stroke; fill: none; stroke: rgb(169, 169, 169); stroke-opacity: 1; stroke-width: 1.88976px; opacity: 1;" d="M24.86,98.06L402.45,98.06"/><path class="js-line" style="vector-effect: non-scaling-stroke; fill: none; stroke: rgb(169, 169, 169); stroke-opacity: 1; stroke-width: 1.88976px; opacity: 1;" d="M24.86,36.77L470.97,36.77"/></g><g class="points"/><g class="text"/></g><g class="trace scatter trace94b340" style="stroke-miterlimit: 2; opacity: 1;"><g class="fills"/><g class="errorbars"/><g class="lines"/><g class="points"><path class="point" transform="translate(489.33,343.23)" style="opacity: 1; stroke-width: 1.88976px; fill: rgb(42, 157, 143); fill-opacity: 1; stroke: rgb(0, 0, 0); stroke-opacity: 1;" d="M7.56,0A7.56,7.56 0 1,1 0,-7.56A7.56,7.56 0 0,1 7.56,0Z"/><path class="point" transform="translate(468.87,281.94)" style="opacity: 1; stroke-width: 1.88976px; fill: rgb(42, 157, 143); fill-opacity: 1; stroke: rgb(0, 0, 0); stroke-opacity: 1;" d="M7.56,0A7.56,7.56 0 1,1 0,-7.56A7.56,7.56 0 0,1 7.56,0Z"/><path class="point" transform="translate(522.14,220.65)" style="opacity: 1; stroke-width: 1.88976px; fill: rgb(42, 157, 143); fill-opacity: 1; stroke: rgb(0, 0, 0); stroke-opacity: 1;" d="M7.56,0A7.56,7.56 0 1,1 0,-7.56A7.56,7.56 0 0,1 7.56,0Z"/><path class="point" transform="translate(461.93,159.35)" style="opacity: 1; stroke-width: 1.88976px; fill: rgb(42, 157, 143); fill-opacity: 1; stroke: rgb(0, 0, 0); stroke-opacity: 1;" d="M7.56,0A7.56,7.56 0 1,1 0,-7.56A7.56,7.56 0 0,1 7.56,0Z"/><path class="point" transform="translate(402.45,98.06)" style="opacity: 1; stroke-width: 1.88976px; fill: rgb(42, 157, 143); fill-opacity: 1; stroke: rgb(0, 0, 0); stroke-opacity: 1;" d="M7.56,0A7.56,7.56 0 1,1 0,-7.56A7.56,7.56 0 0,1 7.56,0Z"/><path class="point" transform="translate(470.97,36.77)" style="opacity: 1; stroke-width: 1.88976px; fill: rgb(42, 157, 143); fill-opacity: 1; stroke: rgb(0, 0, 0); stroke-opacity: 1;" d="M7.56,0A7.56,7.56 0 1,1 0,-7.56A7.56,7.56 0 0,1 7.56,0Z"/></g><g class="text"/></g><g class="trace scatter traceb0324d" style="stroke-miterlimit: 2; opacity: 1;"><g class="fills"/><g class="errorbars"/><g class="lines"><path class="js-line" style="vector-effect: non-scaling-stroke; fill: none; stroke: rgb(0, 0, 0); stroke-opacity: 1; stroke-width: 1.88976px; opacity: 1; stroke-dasharray: 9px, 9px;" d="M98.38,380L98.38,0"/></g><g class="points"/><g class="text"/></g></g></g><g class="overplot"/><path class="xlines-above crisp" style="fill: none; stroke-width: 1px; stroke: rgb(0, 0, 0); stroke-opacity: 0;" d=""/><path class="ylines-above crisp" style="fill: none; stroke-width: 1px; stroke: rgb(0, 0, 0); stroke-opacity: 0;" d=""/><g class="overlines-above"/><g class="xaxislayer-above"><path class="xtick ticks crisp" style="stroke: rgb(51, 51, 51); stroke-opacity: 1; stroke-width: 0.664176px;" d="M0,405v3.65296803652968" transform="translate(90.86,0)"/><path class="xtick ticks crisp" style="stroke: rgb(51, 51, 51); stroke-opacity: 1; stroke-width: 0.664176px;" d="M0,405v3.65296803652968" transform="translate(213.39,0)"/><path class="xtick ticks crisp" style="stroke: rgb(51, 51, 51); stroke-opacity: 1; stroke-width: 0.664176px;" d="M0,405v3.65296803652968" transform="translate(335.92,0)"/><path class="xtick ticks crisp" style="stroke: rgb(51, 51, 51); stroke-opacity: 1; stroke-width: 0.664176px;" d="M0,405v3.65296803652968" transform="translate(458.45,0)"/><path class="xtick ticks crisp" style="stroke: rgb(51, 51, 51); stroke-opacity: 1; stroke-width: 0.664176px;" d="M0,405v3.65296803652968" transform="translate(580.98,0)"/><g class="xtick"><text text-anchor="middle" x="0" y="422.6803652968037" style="font-family: TOBESTRIPPEDOpen SansTOBESTRIPPED, verdana, arial, sans-serif; font-size: 11.6895px; fill: rgb(77, 77, 77); fill-opacity: 1; white-space: pre;" transform="translate(90.86,0)">0.0</text></g><g class="xtick"><text text-anchor="middle" x="0" y="422.6803652968037" style="font-family: TOBESTRIPPEDOpen SansTOBESTRIPPED, verdana, arial, sans-serif; font-size: 11.6895px; fill: rgb(77, 77, 77); fill-opacity: 1; white-space: pre;" transform="translate(213.39,0)">2.5</text></g><g class="xtick"><text text-anchor="middle" x="0" y="422.6803652968037" style="font-family: TOBESTRIPPEDOpen SansTOBESTRIPPED, verdana, arial, sans-serif; font-size: 11.6895px; fill: rgb(77, 77, 77); fill-opacity: 1; white-space: pre;" transform="translate(335.92,0)">5.0</text></g><g class="xtick"><text text-anchor="middle" x="0" y="422.6803652968037" style="font-family: TOBESTRIPPEDOpen SansTOBESTRIPPED, verdana, arial, sans-serif; font-size: 11.6895px; fill: rgb(77, 77, 77); fill-opacity: 1; white-space: pre;" transform="translate(458.45,0)">7.5</text></g><g class="xtick"><text text-anchor="middle" x="0" y="422.6803652968037" style="font-family: TOBESTRIPPEDOpen SansTOBESTRIPPED, verdana, arial, sans-serif; font-size: 11.6895px; fill: rgb(77, 77, 77); fill-opacity: 1; white-space: pre;" transform="translate(580.98,0)">10.0</text></g></g><g class="yaxislayer-above"><path class="ytick ticks crisp" style="stroke: rgb(51, 51, 51); stroke-opacity: 1; stroke-width: 0.664176px;" d="M65,0h-3.65296803652968" transform="translate(0,367.23)"/><path class="ytick ticks crisp" style="stroke: rgb(51, 51, 51); stroke-opacity: 1; stroke-width: 0.664176px;" d="M65,0h-3.65296803652968" transform="translate(0,305.94)"/><path class="ytick ticks crisp" style="stroke: rgb(51, 51, 51); stroke-opacity: 1; stroke-width: 0.664176px;" d="M65,0h-3.65296803652968" transform="translate(0,244.65)"/><path class="ytick ticks crisp" style="stroke: rgb(51, 51, 51); stroke-opacity: 1; stroke-width: 0.664176px;" d="M65,0h-3.65296803652968" transform="translate(0,183.35)"/><path class="ytick ticks crisp" style="stroke: rgb(51, 51, 51); stroke-opacity: 1; stroke-width: 0.664176px;" d="M65,0h-3.65296803652968" transform="translate(0,122.06)"/><path class="ytick ticks crisp" style="stroke: rgb(51, 51, 51); stroke-opacity: 1; stroke-width: 0.664176px;" d="M65,0h-3.65296803652968" transform="translate(0,60.77)"/><g class="ytick"><text text-anchor="end" x="59.00913242009132" y="4.09132420091325" style="font-family: TOBESTRIPPEDOpen SansTOBESTRIPPED, verdana, arial, sans-serif; font-size: 11.6895px; fill: rgb(77, 77, 77); fill-opacity: 1; white-space: pre;" transform="translate(0,367.23)">MAC A</text></g><g class="ytick"><text text-anchor="end" x="59.00913242009132" y="4.09132420091325" style="font-family: TOBESTRIPPEDOpen SansTOBESTRIPPED, verdana, arial, sans-serif; font-size: 11.6895px; fill: rgb(77, 77, 77); fill-opacity: 1; white-space: pre;" transform="translate(0,305.94)">MO B</text></g><g class="ytick"><text text-anchor="end" x="59.00913242009132" y="4.09132420091325" style="font-family: TOBESTRIPPEDOpen SansTOBESTRIPPED, verdana, arial, sans-serif; font-size: 11.6895px; fill: rgb(77, 77, 77); fill-opacity: 1; white-space: pre;" transform="translate(0,244.65)">MAC C</text></g><g class="ytick"><text text-anchor="end" x="59.00913242009132" y="4.09132420091325" style="font-family: TOBESTRIPPEDOpen SansTOBESTRIPPED, verdana, arial, sans-serif; font-size: 11.6895px; fill: rgb(77, 77, 77); fill-opacity: 1; white-space: pre;" transform="translate(0,183.35)">MO A</text></g><g class="ytick"><text text-anchor="end" x="59.00913242009132" y="4.09132420091325" style="font-family: TOBESTRIPPEDOpen SansTOBESTRIPPED, verdana, arial, sans-serif; font-size: 11.6895px; fill: rgb(77, 77, 77); fill-opacity: 1; white-space: pre;" transform="translate(0,122.06)">MO C</text></g><g class="ytick"><text text-anchor="end" x="59.00913242009132" y="4.09132420091325" style="font-family: TOBESTRIPPEDOpen SansTOBESTRIPPED, verdana, arial, sans-serif; font-size: 11.6895px; fill: rgb(77, 77, 77); fill-opacity: 1; white-space: pre;" transform="translate(0,60.77)">MAC B</text></g></g><g class="overaxes-above"/></g></g><g class="polarlayer"/><g class="ternarylayer"/><g class="geolayer"/><g class="funnelarealayer"/><g class="pielayer"/><g class="treemaplayer"/><g class="sunburstlayer"/><g class="glimages"/><defs id="topdefs-2ce11d"><g class="clips"/><clipPath id="legend2ce11d"><rect width="65.22047244094487" height="29.22047244094488" x="1.88976377952756" y="1.88976377952756"/></clipPath></defs><g class="layer-above"><g class="imagelayer"/><g class="shapelayer"><path data-index="0" fill-rule="evenodd" d="M66,404H613V24H66Z" style="opacity: 1; stroke: rgb(51, 51, 51); stroke-opacity: 1; fill: rgb(0, 0, 0); fill-opacity: 0; stroke-width: 0.664176px;"/></g></g><g class="infolayer"><g class="legend" pointer-events="all" transform="translate(623.94, 61.02755905511821)"><rect class="bg" shape-rendering="crispEdges" style="stroke: rgb(0, 0, 0); stroke-opacity: 0; fill: rgb(255, 255, 255); fill-opacity: 1; stroke-width: 1.88976px;" width="67.11023622047244" height="31.11023622047244" x="0.94488188976378" y="0.94488188976378"/><g class="scrollbox" transform="translate(0, 0)" clip-path="url('#legend2ce11d')"><g class="groups" transform="translate(0, 0)"><g class="traces" style="opacity: 1;" transform="translate(1.88976377952756, 16.38976377952756)"><text class="legendtext user-select-none" text-anchor="start" style="font-family: TOBESTRIPPEDOpen SansTOBESTRIPPED, verdana, arial, sans-serif; font-size: 11.6895px; fill: rgb(0, 0, 0); fill-opacity: 1; white-space: pre;" x="40" y="4.55890410958905">OK</text><g class="layers" style="opacity: 1;"><g class="legendfill"/><g class="legendlines"/><g class="legendsymbols"><g class="legendpoints"><path class="scatterpts" transform="translate(20,0)" style="opacity: 1; stroke-width: 1.88976px; fill: rgb(42, 157, 143); fill-opacity: 1; stroke: rgb(0, 0, 0); stroke-opacity: 1;" d="M7.56,0A7.56,7.56 0 1,1 0,-7.56A7.56,7.56 0 0,1 7.56,0Z"/></g></g></g><rect class="legendtoggle" style="cursor: pointer; fill: rgb(0, 0, 0); fill-opacity: 0;" pointer-events="all" x="0" y="-9.5" width="59.399993896484375" height="19"/></g></g></g><rect class="scrollbar" rx="20" ry="3" width="0" height="0" style="fill: rgb(128, 139, 164); fill-opacity: 1;" x="0" y="0"/></g><g class="g-gtitle"/><g class="g-xtitle" transform="translate(0,-14.402541487184237)"><text class="xtitle" style="font-family: TOBESTRIPPEDOpen SansTOBESTRIPPED, verdana, arial, sans-serif; font-size: 14.61px; fill: rgb(0, 0, 0); opacity: 1; font-weight: normal; white-space: pre;" x="339.5" y="457.8356164383561" text-anchor="middle">Minimum Ratio Converted/Non-Converted</text></g><g class="g-ytitle"/><g class="annotation" data-index="0" style="opacity: 1;"><g class="annotation-text-g" transform="rotate(0,648.94,9.999999999999998)"><g class="cursor-pointer" transform="translate(624, -4)"><rect class="bg" style="stroke-width: 1px; stroke: rgb(0, 0, 0); stroke-opacity: 0; fill: rgb(0, 0, 0); fill-opacity: 0;" x="0.5" y="0.5" width="49" height="27"/><text class="annotation-text" style="font-family: TOBESTRIPPEDOpen SansTOBESTRIPPED, verdana, arial, sans-serif; font-size: 14.6119px; fill: rgb(0, 0, 0); fill-opacity: 1; white-space: pre;" text-anchor="middle" x="24.7666015625" y="19.81640625">Status</text></g></g></g></g></svg>