<svg class="main-svg" xmlns="http://www.w3.org/2000/svg" xmlns:xlink="http://www.w3.org/1999/xlink" width="700" height="450" style="" viewBox="0 0 700 450"><rect x="0" y="0" width="700" height="450" style="fill: rgb(255, 255, 255); fill-opacity: 1;"/><defs id="defs-300f8d"><g class="clips"><clipPath id="clip300f8dxyplot" class="plotclip"><rect width="557" height="380"/></clipPath><clipPath class="axesclip" id="clip300f8dx"><rect x="37" y="0" width="557" height="450"/></clipPath><clipPath class="axesclip" id="clip300f8dy"><rect x="0" y="24" width="700" height="380"/></clipPath><clipPath class="axesclip" id="clip300f8dxy"><rect x="37" y="24" width="557" height="380"/></clipPath></g><g class="gradients"/></defs><g class="bglayer"/><g class="layer-below"><g class="imagelayer"/><g class="shapelayer"/></g><g class="cartesianlayer"><g class="subplot xy"><g class="layer-subplot"><g class="shapelayer"/><g class="imagelayer"/></g><g class="gridlayer"><g class="x"/><g class="y"/></g><g class="zerolinelayer"/><path class="xlines-below"/><path class="ylines-below"/><g class="overlines-below"/><g class="xaxislayer-below"/><g class="yaxislayer-below"/><g class="overaxes-below"/><g class="plot" transform="translate(37, 24)" clip-path="url('#clip300f8dxyplot')"><g class="scatterlayer mlayer"><g class="trace scatter trace9ad620" style="stroke-miterlimit: 2; opacity: 1;"><g class="fills"/><g class="errorbars"/><g class="lines"><path class="js-line" style="vector-effect: non-scaling-stroke; fill: none; stroke: rgb(248, 118, 109); stroke-opacity: 1; stroke-width: 1.88976px; opacity: 1;" d="M25.32,265.34L32.25,223.66L33.25,218.79L37.21,203.4L38.2,200.73L41.17,195.65L42.16,195.03L44.15,195.21L45.14,195.98L47.12,198.95L48.11,201.06L52.07,212.8L53.06,216.44L60,245.72L60.99,250.1L69.91,286.18L70.9,289.63L76.85,307.37L77.84,309.84L83.78,322.37L84.77,324.11L90.72,332.82L91.71,334.04L98.65,341.11L99.64,341.95L107.57,347.54L108.56,348.12L117.47,352.37L118.47,352.75L129.37,356.04L130.36,356.27L144.23,358.75L145.22,358.89L169,361.28L169.99,361.36L196.75,362.51L197.74,362.51L249.27,361.76L250.26,361.72L336.47,357.51L337.46,357.41L355.3,354.91L356.29,354.73L383.04,349.15L384.03,348.9L396.92,344.9L397.91,344.5L407.82,339.63L408.81,339.03L417.73,332.78L418.72,331.97L427.63,323.46L428.63,322.37L436.55,312.18L437.54,310.71L444.48,298.7L445.47,296.69L451.42,282.78L452.41,280.09L458.35,261.17L459.34,257.51L465.29,231.57L466.28,226.53L472.23,191.86L473.22,185.33L481.14,126.75L482.14,118.93L491.05,52.82L492.04,46.89L496.01,28.12L497,25.08L498.98,21.08L499.97,20.18L500.96,20.08L501.95,21L503.94,25.29L504.93,28.67L507.9,44.11L508.89,50.88L512.85,85.05L513.85,95.12L521.77,186.87L522.76,198.66L530.69,283.17L531.68,291.95"/></g><g class="points"/><g class="text"/></g><g class="trace scatter trace134e77" style="stroke-miterlimit: 2; opacity: 1;"><g class="fills"/><g class="errorbars"/><g class="lines"><path class="js-line" style="vector-effect: non-scaling-stroke; fill: none; stroke: rgb(183, 159, 0); stroke-opacity: 1; stroke-width: 1.88976px; opacity: 1;" d="M25.32,283.5L34.24,228.79L35.23,223.84L39.19,208.33L40.18,205.59L43.15,200.56L44.15,199.91L46.13,200.07L47.12,200.93L50.09,206.17L51.08,208.68L55.05,221.93L56.04,225.82L73.87,298.23L74.86,301.27L80.81,316.69L81.8,318.81L87.75,329.33L88.74,330.77L94.68,337.87L95.67,338.84L102.61,344.41L103.6,345.06L111.53,349.22L112.52,349.64L123.42,353.24L124.41,353.5L141.26,357.01L142.25,357.17L160.08,359.31L161.08,359.39L189.81,360.7L190.8,360.72L227.47,361.09L228.46,361.09L253.23,360.4L254.22,360.33L302.78,357.34L303.77,357.3L328.54,355.3L329.53,355.2L357.28,351.17L358.27,350.98L375.12,347.16L376.11,346.88L389.98,342.18L390.97,341.77L401.87,336.51L402.86,335.95L412.77,329.42L413.76,328.67L422.68,320.91L423.67,319.92L431.6,310.86L432.59,309.55L439.53,299.04L440.52,297.31L446.46,285.33L447.45,283.04L453.4,266.93L454.39,263.8L460.34,241.81L461.33,237.55L467.27,207.75L468.26,202.08L475.2,156.35L476.19,149.09L490.06,48.37L491.05,43.05L495.02,27.37L496.01,25.26L497.99,23.29L498.98,23.49L499.97,24.51L500.96,26.61L502.94,33.33L503.94,37.95L506.91,57.01L507.9,64.94L512.85,114.02L513.85,125.27L527.72,282.42L528.71,291.29L531.68,315.01"/></g><g class="points"/><g class="text"/></g><g class="trace scatter tracea89989" style="stroke-miterlimit: 2; opacity: 1;"><g class="fills"/><g class="errorbars"/><g class="lines"><path class="js-line" style="vector-effect: non-scaling-stroke; fill: none; stroke: rgb(0, 186, 56); stroke-opacity: 1; stroke-width: 1.88976px; opacity: 1;" d="M25.32,273.53L33.25,224.63L34.24,219.57L38.2,203.69L39.19,200.82L42.16,195.51L43.15,194.73L45.14,194.71L46.13,195.5L48.11,198.38L49.1,200.43L52.07,208.91L53.06,212.35L59.01,237.09L60,241.58L69.91,284.12L70.9,287.79L76.85,306.73L77.84,309.38L83.78,322.64L84.77,324.45L90.72,333.39L91.71,334.6L97.66,340.65L98.65,341.48L105.58,346.33L106.57,346.91L116.48,351.55L117.47,351.93L129.37,355.62L130.36,355.87L146.21,358.99L147.2,359.14L163.06,360.7L164.05,360.75L186.84,361.39L187.83,361.41L251.25,362.09L252.24,362.05L299.8,359.38L300.8,359.32L341.42,356.16L342.41,356.02L367.19,351.82L368.18,351.63L385.02,347.84L386.02,347.56L398.9,342.88L399.89,342.43L409.8,337.23L410.79,336.62L419.71,330.25L420.7,329.42L428.63,321.7L429.62,320.58L436.55,311.39L437.54,309.86L443.49,299.37L444.48,297.37L450.43,283.46L451.42,280.77L457.36,262.03L458.35,258.4L464.3,232.92L465.29,228.01L471.24,193.86L472.23,187.38L480.15,128.89L481.14,121L491.05,46.93L492.04,41.1L496.01,23.47L497,20.67L498.98,17.63L499.97,17.27L501.95,19L502.94,21.38L504.93,28.66L505.92,33.54L508.89,53.38L509.88,61.55L514.84,111.55L515.83,122.93L529.7,280.93L530.69,289.85L531.68,298.3"/></g><g class="points"/><g class="text"/></g><g class="trace scatter trace6860d9" style="stroke-miterlimit: 2; opacity: 1;"><g class="fills"/><g class="errorbars"/><g class="lines"><path class="js-line" style="vector-effect: non-scaling-stroke; fill: none; stroke: rgb(0, 191, 196); stroke-opacity: 1; stroke-width: 1.88976px; opacity: 1;" d="M25.32,268.12L33.25,218.79L34.24,213.83L38.2,198.6L39.19,195.99L41.17,192.43L42.16,191.49L44.15,191.13L45.14,191.68L47.12,194.41L48.11,196.43L51.08,204.77L52.07,208.26L58.02,233.51L59.01,238.12L69.91,285.77L70.9,289.42L76.85,308.08L77.84,310.66L83.78,323.62L84.77,325.39L90.72,334.17L91.71,335.39L98.65,342.29L99.64,343.1L107.57,348.41L108.56,348.96L118.47,353.38L119.46,353.73L130.36,356.9L131.35,357.13L147.2,359.93L148.19,360.06L168.01,361.92L169,361.98L189.81,362.29L190.8,362.29L226.48,362.66L227.47,362.67L250.26,362.41L251.25,362.37L333.5,357.65L334.49,357.54L358.27,354.15L359.26,353.97L380.07,349.48L381.06,349.21L393.94,345L394.93,344.61L405.83,339.41L406.83,338.85L416.73,332.24L417.73,331.47L425.65,324.28L426.64,323.24L433.58,314.85L434.57,313.46L441.51,302.18L442.5,300.31L448.44,287.41L449.43,284.95L455.38,267.81L456.37,264.5L462.32,241.44L463.31,236.99L469.25,206.16L470.24,200.31L477.18,153.65L478.17,146.31L492.04,46.28L493.04,41.09L497,25.91L497.99,23.85L499.97,21.89L500.96,22.05L502.94,25.16L503.94,27.96L506.91,41.29L507.9,47.49L511.86,79.26L512.85,88.89L518.8,154.93L519.79,166.71L529.7,276.28L530.69,285.35L531.68,293.97"/></g><g class="points"/><g class="text"/></g><g class="trace scatter trace0f8fcb" style="stroke-miterlimit: 2; opacity: 1;"><g class="fills"/><g class="errorbars"/><g class="lines"><path class="js-line" style="vector-effect: non-scaling-stroke; fill: none; stroke: rgb(97, 156, 255); stroke-opacity: 1; stroke-width: 1.88976px; opacity: 1;" d="M25.32,267.95L33.25,219.92L34.24,215.12L38.2,200.46L39.19,197.95L41.17,194.58L42.16,193.69L44.15,193.39L45.14,193.94L47.12,196.64L48.11,198.61L51.08,206.75L52.07,210.14L58.02,234.72L59.01,239.22L69.91,286.03L70.9,289.64L76.85,308.23L77.84,310.82L83.78,323.8L84.77,325.58L90.72,334.35L91.71,335.55L97.66,341.51L98.65,342.33L106.57,347.69L107.57,348.23L117.47,352.66L118.47,353.02L132.34,357L133.33,357.22L149.18,359.9L150.17,360.02L169.99,361.67L170.98,361.72L193.78,362.37L194.77,362.37L254.22,361.67L255.21,361.61L338.45,356.85L339.44,356.73L362.23,353.24L363.22,353.05L383.04,348.59L384.03,348.32L396.92,343.87L397.91,343.44L407.82,338.3L408.81,337.69L418.72,330.5L419.71,329.66L428.63,320.84L429.62,319.69L436.55,310.51L437.54,309L444.48,296.71L445.47,294.65L451.42,280.4L452.41,277.65L458.35,258.36L459.34,254.64L465.29,228.39L466.28,223.31L472.23,188.45L473.22,181.91L481.14,123.6L482.14,115.87L491.05,51.17L492.04,45.47L496.01,27.76L497,24.99L498.98,21.62L499.97,21.05L500.96,21.25L501.95,22.39L503.94,27.32L504.93,31.01L507.9,47.19L508.89,54.22L512.85,89.12L513.85,99.34L522.76,203.03L523.75,214.57L530.69,286.38L531.68,294.97"/></g><g class="points"/><g class="text"/></g><g class="trace scatter traceece0e4" style="stroke-miterlimit: 2; opacity: 1;"><g class="fills"/><g class="errorbars"/><g class="lines"><path class="js-line" style="vector-effect: non-scaling-stroke; fill: none; stroke: rgb(245, 100, 227); stroke-opacity: 1; stroke-width: 1.88976px; opacity: 1;" d="M25.32,279.35L34.24,224.73L35.23,219.91L39.19,204.91L40.18,202.37L43.15,197.8L44.15,197.37L46.13,197.97L47.12,198.96L50.09,204.74L51.08,207.44L55.05,221.27L56.04,225.3L72.88,295.69L73.87,298.92L79.82,315.18L80.81,317.4L86.76,328.45L87.75,329.95L93.69,337.37L94.68,338.4L101.62,344.23L102.61,344.91L110.54,349.4L111.53,349.86L122.43,353.78L123.42,354.05L137.29,357L138.28,357.16L159.09,359.58L160.08,359.65L184.86,360.68L185.85,360.7L259.18,360.76L260.17,360.71L319.62,356.97L320.61,356.9L347.37,354.07L348.36,353.93L365.21,350.83L366.2,350.59L381.06,346.25L382.05,345.92L398.9,339.17L399.89,338.7L410.79,332.51L411.78,331.84L419.71,325.6L420.7,324.7L428.63,316.3L429.62,315.09L436.55,305.38L437.54,303.79L444.48,291.02L445.47,288.92L451.42,274.43L452.41,271.65L458.35,252.19L459.34,248.42L465.29,221.96L466.28,216.86L472.23,181.69L473.22,175.08L482.14,108.92L483.13,101.27L490.06,52.52L491.05,46.86L495.02,29.61L496.01,26.95L497.99,23.77L498.98,23.35L500.96,25.32L501.95,27.53L503.94,34.46L504.93,39.37L507.9,58.87L508.89,66.82L513.85,116.14L514.84,127.36L528.71,283.26L529.7,292.09L531.68,308.15"/></g><g class="points"/><g class="text"/></g></g></g><g class="overplot"/><path class="xlines-above crisp" style="fill: none; stroke-width: 1px; stroke: rgb(0, 0, 0); stroke-opacity: 0;" d=""/><path class="ylines-above crisp" style="fill: none; stroke-width: 1px; stroke: rgb(0, 0, 0); stroke-opacity: 0;" d=""/><g class="overlines-above"/><g class="xaxislayer-above"><path class="xtick ticks crisp" style="stroke: rgb(51, 51, 51); stroke-opacity: 1; stroke-width: 0.664176px;" d="M0,405v3.65296803652968" transform="translate(55.42,0)"/><path class="xtick ticks crisp" style="stroke: rgb(51, 51, 51); stroke-opacity: 1; stroke-width: 0.664176px;" d="M0,405v3.65296803652968" transform="translate(186.28,0)"/><path class="xtick ticks crisp" style="stroke: rgb(51, 51, 51); stroke-opacity: 1; stroke-width: 0.664176px;" d="M0,405v3.65296803652968" transform="translate(317.14,0)"/><path class="xtick ticks crisp" style="stroke: rgb(51, 51, 51); stroke-opacity: 1; stroke-width: 0.664176px;" d="M0,405v3.65296803652968" transform="translate(448.01,0)"/><path class="xtick ticks crisp" style="stroke: rgb(51, 51, 51); stroke-opacity: 1; stroke-width: 0.664176px;" d="M0,405v3.65296803652968" transform="translate(578.87,0)"/><g class="xtick"><text text-anchor="middle" x="0" y="422.6803652968037" style="font-family: TOBESTRIPPEDOpen SansTOBESTRIPPED, verdana, arial, sans-serif; font-size: 11.6895px; fill: rgb(77, 77, 77); fill-opacity: 1; white-space: pre;" transform="translate(55.42,0)">0.00</text></g><g class="xtick"><text text-anchor="middle" x="0" y="422.6803652968037" style="font-family: TOBESTRIPPEDOpen SansTOBESTRIPPED, verdana, arial, sans-serif; font-size: 11.6895px; fill: rgb(77, 77, 77); fill-opacity: 1; white-space: pre;" transform="translate(186.28,0)">0.25</text></g><g class="xtick"><text text-anchor="middle" x="0" y="422.6803652968037" style="font-family: TOBESTRIPPEDOpen SansTOBESTRIPPED, verdana, arial, sans-serif; font-size: 11.6895px; fill: rgb(77, 77, 77); fill-opacity: 1; white-space: pre;" transform="translate(317.14,0)">0.50</text></g><g class="xtick"><text text-anchor="middle" x="0" y="422.6803652968037" style="font-family: TOBESTRIPPEDOpen SansTOBESTRIPPED, verdana, arial, sans-serif; font-size: 11.6895px; fill: rgb(77, 77, 77); fill-opacity: 1; white-space: pre;" transform="translate(448.01,0)">0.75</text></g><g class="xtick"><text text-anchor="middle" x="0" y="422.6803652968037" style="font-family: TOBESTRIPPEDOpen SansTOBESTRIPPED, verdana, arial, sans-serif; font-size: 11.6895px; fill: rgb(77, 77, 77); fill-opacity: 1; white-space: pre;" transform="translate(578.87,0)">1.00</text></g></g><g class="yaxislayer-above"><path class="ytick ticks crisp" style="stroke: rgb(51, 51, 51); stroke-opacity: 1; stroke-width: 0.664176px;" d="M36,0h-3.65296803652968" transform="translate(0,329.65)"/><path class="ytick ticks crisp" style="stroke: rgb(51, 51, 51); stroke-opacity: 1; stroke-width: 0.664176px;" d="M36,0h-3.65296803652968" transform="translate(0,252.68)"/><path class="ytick ticks crisp" style="stroke: rgb(51, 51, 51); stroke-opacity: 1; stroke-width: 0.664176px;" d="M36,0h-3.65296803652968" transform="translate(0,175.72)"/><path class="ytick ticks crisp" style="stroke: rgb(51, 51, 51); stroke-opacity: 1; stroke-width: 0.664176px;" d="M36,0h-3.65296803652968" transform="translate(0,98.75)"/><g class="ytick"><text text-anchor="end" x="30.00913242009132" y="4.09132420091325" style="font-family: TOBESTRIPPEDOpen SansTOBESTRIPPED, verdana, arial, sans-serif; font-size: 11.6895px; fill: rgb(77, 77, 77); fill-opacity: 1; white-space: pre;" transform="translate(0,329.65)">1</text></g><g class="ytick"><text text-anchor="end" x="30.00913242009132" y="4.09132420091325" style="font-family: TOBESTRIPPEDOpen SansTOBESTRIPPED, verdana, arial, sans-serif; font-size: 11.6895px; fill: rgb(77, 77, 77); fill-opacity: 1; white-space: pre;" transform="translate(0,252.68)">2</text></g><g class="ytick"><text text-anchor="end" x="30.00913242009132" y="4.09132420091325" style="font-family: TOBESTRIPPEDOpen SansTOBESTRIPPED, verdana, arial, sans-serif; font-size: 11.6895px; fill: rgb(77, 77, 77); fill-opacity: 1; white-space: pre;" transform="translate(0,175.72)">3</text></g><g class="ytick"><text text-anchor="end" x="30.00913242009132" y="4.09132420091325" style="font-family: TOBESTRIPPEDOpen SansTOBESTRIPPED, verdana, arial, sans-serif; font-size: 11.6895px; fill: rgb(77, 77, 77); fill-opacity: 1; white-space: pre;" transform="translate(0,98.75)">4</text></g></g><g class="overaxes-above"/></g></g><g class="polarlayer"/><g class="ternarylayer"/><g class="geolayer"/><g class="funnelarealayer"/><g class="pielayer"/><g class="treemaplayer"/><g class="sunburstlayer"/><g class="glimages"/><defs id="topdefs-300f8d"><g class="clips"/><clipPath id="legend300f8d"><rect width="84.22047244094487" height="174.2204724409449" x="1.88976377952756" y="1.88976377952756"/></clipPath></defs><g class="layer-above"><g class="imagelayer"/><g class="shapelayer"><path data-index="0" fill-rule="evenodd" d="M37,404H594V24H37Z" style="opacity: 1; stroke: rgb(51, 51, 51); stroke-opacity: 1; fill: rgb(0, 0, 0); fill-opacity: 0; stroke-width: 0.664176px;"/></g></g><g class="infolayer"><g class="legend" pointer-events="all" transform="translate(605.14, 61.02755905511821)"><rect class="bg" shape-rendering="crispEdges" style="stroke: rgb(0, 0, 0); stroke-opacity: 0; fill: rgb(255, 255, 255); fill-opacity: 1; stroke-width: 1.88976px;" width="86.11023622047244" height="176.11023622047244" x="0.94488188976378" y="0.94488188976378"/><g class="scrollbox" transform="translate(0, 0)" clip-path="url('#legend300f8d')"><g class="groups" transform="translate(0, 0)"><g class="traces" style="opacity: 1;" transform="translate(1.88976377952756, 16.38976377952756)"><text class="legendtext user-select-none" text-anchor="start" style="font-family: TOBESTRIPPEDOpen SansTOBESTRIPPED, verdana, arial, sans-serif; font-size: 11.6895px; fill: rgb(0, 0, 0); fill-opacity: 1; white-space: pre;" x="40" y="4.55890410958905">MAC A</text><g class="layers" style="opacity: 1;"><g class="legendfill"/><g class="legendlines"><path class="js-line" d="M5,0h30" style="fill: none; stroke: rgb(248, 118, 109); stroke-opacity: 1; stroke-width: 1.88976px;"/></g><g class="legendsymbols"><g class="legendpoints"/></g></g><rect class="legendtoggle" style="cursor: pointer; fill: rgb(0, 0, 0); fill-opacity: 0;" pointer-events="all" x="0" y="-9.5" width="79.06666564941406" height="19"/></g></g><g class="groups" transform="translate(0, 10)"><g class="traces" style="opacity: 1;" transform="translate(1.88976377952756, 35.389763779527556)"><text class="legendtext user-select-none" text-anchor="start" style="font-family: TOBESTRIPPEDOpen SansTOBESTRIPPED, verdana, arial, sans-serif; font-size: 11.6895px; fill: rgb(0, 0, 0); fill-opacity: 1; white-space: pre;" x="40" y="4.55890410958905">MAC B</text><g class="layers" style="opacity: 1;"><g class="legendfill"/><g class="legendlines"><path class="js-line" d="M5,0h30" style="fill: none; stroke: rgb(183, 159, 0); stroke-opacity: 1; stroke-width: 1.88976px;"/></g><g class="legendsymbols"><g class="legendpoints"/></g></g><rect class="legendtoggle" style="cursor: pointer; fill: rgb(0, 0, 0); fill-opacity: 0;" pointer-events="all" x="0" y="-9.5" width="79.06666564941406" height="19"/></g></g><g class="groups" transform="translate(0, 20)"><g class="traces" style="opacity: 1;" transform="translate(1.88976377952756, 54.38976377952756)"><text class="legendtext user-select-none" text-anchor="start" style="font-family: TOBESTRIPPEDOpen SansTOBESTRIPPED, verdana, arial, sans-serif; font-size: 11.6895px; fill: rgb(0, 0, 0); fill-opacity: 1; white-space: pre;" x="40" y="4.55890410958905">MAC C</text><g class="layers" style="opacity: 1;"><g class="legendfill"/><g class="legendlines"><path class="js-line" d="M5,0h30" style="fill: none; stroke: rgb(0, 186, 56); stroke-opacity: 1; stroke-width: 1.88976px;"/></g><g class="legendsymbols"><g class="legendpoints"/></g></g><rect class="legendtoggle" style="cursor: pointer; fill: rgb(0, 0, 0); fill-opacity: 0;" pointer-events="all" x="0" y="-9.5" width="79.06666564941406" height="19"/></g></g><g class="groups" transform="translate(0, 30)"><g class="traces" style="opacity: 1;" transform="translate(1.88976377952756, 73.38976377952756)"><text class="legendtext user-select-none" text-anchor="start" style="font-family: TOBESTRIPPEDOpen SansTOBESTRIPPED, verdana, arial, sans-serif; font-size: 11.6895px; fill: rgb(0, 0, 0); fill-opacity: 1; white-space: pre;" x="40" y="4.55890410958905">MO A</text><g class="layers" style="opacity: 1;"><g class="legendfill"/><g class="legendlines"><path class="js-line" d="M5,0h30" style="fill: none; stroke: rgb(0, 191, 196); stroke-opacity: 1; stroke-width: 1.88976px;"/></g><g class="legendsymbols"><g class="legendpoints"/></g></g><rect class="legendtoggle" style="cursor: pointer; fill: rgb(0, 0, 0); fill-opacity: 0;" pointer-events="all" x="0" y="-9.5" width="79.06666564941406" height="19"/></g></g><g class="groups" transform="translate(0, 40)"><g class="traces" style="opacity: 1;" transform="translate(1.88976377952756, 92.38976377952756)"><text class="legendtext user-select-none" text-anchor="start" style="font-family: TOBESTRIPPEDOpen SansTOBESTRIPPED, verdana, arial, sans-serif; font-size: 11.6895px; fill: rgb(0, 0, 0); fill-opacity: 1; white-space: pre;" x="40" y="4.55890410958905">MO B</text><g class="layers" style="opacity: 1;"><g class="legendfill"/><g class="legendlines"><path class="js-line" d="M5,0h30" style="fill: none; stroke: rgb(97, 156, 255); stroke-opacity: 1; stroke-width: 1.88976px;"/></g><g class="legendsymbols"><g class="legendpoints"/></g></g><rect class="legendtoggle" style="cursor: pointer; fill: rgb(0, 0, 0); fill-opacity: 0;" pointer-events="all" x="0" y="-9.5" width="79.06666564941406" height="19"/></g></g><g class="groups" transform="translate(0, 50)"><g class="traces" style="opacity: 1;" transform="translate(1.88976377952756, 111.38976377952756)"><text class="legendtext user-select-none" text-anchor="start" style="font-family: TOBESTRIPPEDOpen SansTOBESTRIPPED, verdana, arial, sans-serif; font-size: 11.6895px; fill: rgb(0, 0, 0); fill-opacity: 1; white-space: pre;" x="40" y="4.55890410958905">MO C</text><g class="layers" style="opacity: 1;"><g class="legendfill"/><g class="legendlines"><path class="js-line" d="M5,0h30" style="fill: none; stroke: rgb(245, 100, 227); stroke-opacity: 1; stroke-width: 1.88976px;"/></g><g class="legendsymbols"><g class="legendpoints"/></g></g><rect class="legendtoggle" style="cursor: pointer; fill: rgb(0, 0, 0); fill-opacity: 0;" pointer-events="all" x="0" y="-9.5" width="79.06666564941406" height="19"/></g></g></g><rect class="scrollbar" rx="20" ry="3" width="0" height="0" style="fill: rgb(128, 139, 164); fill-opacity: 1;" x="0" y="0"/></g><g class="g-gtitle"/><g class="g-xtitle" transform="translate(0,-14.402541487184237)"><text class="xtitle" style="font-family: TOBESTRIPPEDOpen SansTOBESTRIPPED, verdana, arial, sans-serif; font-size: 14.61px; fill: rgb(0, 0, 0); opacity: 1; font-weight: normal; white-space: pre;" x="315.5" y="457.8356164383561" text-anchor="middle">Bvalues</text></g><g class="g-ytitle" transform="translate(20.0498046875,0)"><text class="ytitle" transform="rotate(-90,-2.2237442922373987,214)" style="font-family: TOBESTRIPPEDOpen SansTOBESTRIPPED, verdana, arial, sans-serif; font-size: 14.61px; fill: rgb(0, 0, 0); opacity: 1; font-weight: normal; white-space: pre;" x="-2.2237442922373987" y="214" text-anchor="middle">density</text></g><g class="annotation" data-index="0" style="opacity: 1;"><g class="annotation-text-g" transform="rotate(0,633.64,9.999999999999998)"><g class="cursor-pointer" transform="translate(605, -4)"><rect class="bg" style="stroke-width: 1px; stroke: rgb(0, 0, 0); stroke-opacity: 0; fill: rgb(0, 0, 0); fill-opacity: 0;" x="0.5" y="0.5" width="56" height="27"/><text class="annotation-text" style="font-family: TOBESTRIPPEDOpen SansTOBESTRIPPED, verdana, arial, sans-serif; font-size: 14.6119px; fill: rgb(0, 0, 0); fill-opacity: 1; white-space: pre;" text-anchor="middle" x="28.349609375" y="19.81640625">sample</text></g></g></g></g></svg>