<svg class="main-svg" xmlns="http://www.w3.org/2000/svg" xmlns:xlink="http://www.w3.org/1999/xlink" width="700" height="450" style="" viewBox="0 0 700 450"><rect x="0" y="0" width="700" height="450" style="fill: rgb(255, 255, 255); fill-opacity: 1;"/><defs id="defs-7c0160"><g class="clips"><clipPath id="clip7c0160xyplot" class="plotclip"><rect width="557" height="380"/></clipPath><clipPath class="axesclip" id="clip7c0160x"><rect x="37" y="0" width="557" height="450"/></clipPath><clipPath class="axesclip" id="clip7c0160y"><rect x="0" y="24" width="700" height="380"/></clipPath><clipPath class="axesclip" id="clip7c0160xy"><rect x="37" y="24" width="557" height="380"/></clipPath></g><g class="gradients"/></defs><g class="bglayer"/><g class="layer-below"><g class="imagelayer"/><g class="shapelayer"/></g><g class="cartesianlayer"><g class="subplot xy"><g class="layer-subplot"><g class="shapelayer"/><g class="imagelayer"/></g><g class="gridlayer"><g class="x"/><g class="y"/></g><g class="zerolinelayer"/><path class="xlines-below"/><path class="ylines-below"/><g class="overlines-below"/><g class="xaxislayer-below"/><g class="yaxislayer-below"/><g class="overaxes-below"/><g class="plot" transform="translate(37, 24)" clip-path="url('#clip7c0160xyplot')"><g class="scatterlayer mlayer"><g class="trace scatter trace943bfa" style="stroke-miterlimit: 2; opacity: 1;"><g class="fills"/><g class="errorbars"/><g class="lines"><path class="js-line" style="vector-effect: non-scaling-stroke; fill: none; stroke: rgb(248, 118, 109); stroke-opacity: 1; stroke-width: 1.88976px; opacity: 1;" d="M25.32,334.22L29.28,312.74L30.27,306.04L35.23,264.43L36.22,254.62L51.08,103.12L52.07,96.86L55.05,83.54L56.04,81L58.02,79.15L59.01,79.72L60.99,83.53L61.98,86.68L64.96,100.83L65.95,106.75L71.89,149.91L72.88,157.68L81.8,222.36L82.79,228.39L88.74,258.87L89.73,263.02L94.68,280.38L95.67,283.24L100.63,295.17L101.62,297.13L107.57,306.68L108.56,307.96L114.5,314.24L115.49,315.1L122.43,320.01L123.42,320.59L133.33,325.45L134.32,325.87L146.21,329.96L147.2,330.23L158.1,332.37L159.09,332.49L169.99,332.89L170.98,332.85L185.85,331.56L186.84,331.46L216.57,329.2L217.56,329.12L268.1,324.55L269.09,324.4L282.96,321.45L283.95,321.18L303.77,314.61L304.76,314.26L319.62,308.23L320.61,307.74L331.51,301.56L332.51,300.93L343.41,293.02L344.4,292.2L352.32,284.67L353.31,283.58L360.25,274.87L361.24,273.45L368.18,262.11L369.17,260.27L376.11,245.78L377.1,243.46L384.03,225.33L385.02,222.46L392.95,196.84L393.94,193.29L402.86,158.05L403.85,153.78L416.73,93.91L417.73,89.26L425.65,55.51L426.64,52.01L430.61,40.66L431.6,38.59L434.57,34.51L435.56,34.01L437.54,34.27L438.53,35.06L440.52,38.03L441.51,40.32L444.48,50.04L445.47,54.22L449.43,75.7L450.43,82.12L456.37,127.51L457.36,135.88L471.24,250.07L472.23,256.69L477.18,285.04L478.17,289.7L483.13,308.45L484.12,311.34L489.07,322.49L490.06,324.16L495.02,330.73L496.01,331.78L506.91,341.79L507.9,342.71L524.75,357.68L525.74,358.34L531.68,361.48"/></g><g class="points"/><g class="text"/></g><g class="trace scatter trace6882c3" style="stroke-miterlimit: 2; opacity: 1;"><g class="fills"/><g class="errorbars"/><g class="lines"><path class="js-line" style="vector-effect: non-scaling-stroke; fill: none; stroke: rgb(183, 159, 0); stroke-opacity: 1; stroke-width: 1.88976px; opacity: 1;" d="M25.32,330.79L29.28,306.95L30.27,299.56L35.23,254.45L36.22,244.01L48.11,117.51L49.1,109.82L52.07,92.02L53.06,88.16L55.05,83.4L56.04,82.49L57.03,82.55L58.02,83.61L60,88.63L60.99,92.31L63.96,107.34L64.96,113.52L71.89,163.74L72.88,171.12L79.82,217.93L80.81,223.68L86.76,252.67L87.75,256.68L93.69,276.51L94.68,279.23L100.63,292.76L101.62,294.6L107.57,303.84L108.56,305.1L114.5,311.4L115.49,312.27L123.42,317.97L124.41,318.56L134.32,323.52L135.31,323.93L146.21,327.65L147.2,327.91L159.09,330.29L160.08,330.42L170.98,331.2L171.98,331.21L187.83,330.64L188.82,330.58L232.42,327.23L233.41,327.1L271.07,321.43L272.06,321.23L286.92,317.5L287.91,317.18L300.8,312.01L301.79,311.55L314.67,304.59L315.66,303.98L326.56,296.17L327.55,295.34L336.47,286.73L337.46,285.63L345.39,275.46L346.38,274.01L354.31,260.72L355.3,258.84L363.22,242.02L364.22,239.69L373.13,216.28L374.12,213.41L382.05,188.24L383.04,184.82L392.95,147.18L393.94,143.14L411.78,72.27L412.77,69.1L417.73,56.22L418.72,54.32L421.69,50.4L422.68,49.7L424.66,49.29L425.65,49.59L427.63,51.44L428.63,52.92L431.6,59.66L432.59,62.75L436.55,79L437.54,83.98L442.5,114.06L443.49,120.91L453.4,197.26L454.39,204.97L462.32,260.67L463.31,266.55L469.25,295.94L470.24,299.8L475.2,315.29L476.19,317.65L481.14,326.7L482.14,328.02L487.09,333.13L488.08,333.91L497.99,340.41L498.98,341.06L509.88,349.28L510.87,350.1L522.76,358.86L523.75,359.42L530.69,362.38L531.68,362.66"/></g><g class="points"/><g class="text"/></g><g class="trace scatter trace31f404" style="stroke-miterlimit: 2; opacity: 1;"><g class="fills"/><g class="errorbars"/><g class="lines"><path class="js-line" style="vector-effect: non-scaling-stroke; fill: none; stroke: rgb(0, 186, 56); stroke-opacity: 1; stroke-width: 1.88976px; opacity: 1;" d="M25.32,331.62L29.28,309.73L30.27,302.99L35.23,261.83L36.22,252.25L50.09,113.67L51.08,106.71L54.06,91.29L55.05,87.91L57.03,83.93L58.02,83.55L59.01,84.07L60,85.45L61.98,90.7L62.97,94.47L66.94,116.28L67.93,122.92L84.77,241.41L85.76,246.6L90.72,268.42L91.71,272.05L96.66,286.94L97.66,289.38L102.61,299.38L103.6,301.02L109.55,309L110.54,310.09L117.47,316.32L118.47,317.06L127.38,322.56L128.37,323.07L139.27,327.77L140.27,328.13L152.16,331.51L153.15,331.72L164.05,333.14L165.04,333.2L179.9,333.2L180.89,333.16L201.7,331.6L202.69,331.49L272.06,323.64L273.05,323.49L291.88,319.53L292.87,319.27L307.73,314.68L308.72,314.31L319.62,309.28L320.61,308.74L334.49,300.26L335.48,299.6L346.38,291.53L347.37,290.69L355.3,282.95L356.29,281.83L363.22,272.81L364.22,271.32L371.15,259.42L372.14,257.49L379.08,242.15L380.07,239.7L388,217.54L388.99,214.44L396.92,186.76L397.91,182.93L405.83,148.98L406.83,144.35L427.63,45.42L428.63,41.94L432.59,31.08L433.58,29.2L435.56,26.76L436.55,26.19L438.53,26.39L439.53,27.19L441.51,30.41L442.5,32.8L445.47,42.95L446.46,47.36L450.43,69.93L451.42,76.63L457.36,124.03L458.35,132.75L471.24,243.3L472.23,250.38L478.17,286.06L479.16,290.82L484.12,309.96L485.11,312.93L490.06,324.46L491.05,326.21L496.01,333.14L497,334.26L505.92,342.78L506.91,343.67L522.76,357.12L523.75,357.79L530.69,361.46L531.68,361.84"/></g><g class="points"/><g class="text"/></g><g class="trace scatter tracea01142" style="stroke-miterlimit: 2; opacity: 1;"><g class="fills"/><g class="errorbars"/><g class="lines"><path class="js-line" style="vector-effect: non-scaling-stroke; fill: none; stroke: rgb(0, 191, 196); stroke-opacity: 1; stroke-width: 1.88976px; opacity: 1;" d="M25.32,333.08L29.28,312.3L30.27,305.91L35.23,266.59L36.22,257.41L51.08,114.02L52.07,107.57L55.05,93.26L56.04,90.29L58.02,86.99L59.01,86.65L60,87.26L60.99,88.79L62.97,94.17L63.96,97.92L66.94,112.97L67.93,119.02L74.86,168.6L75.86,176L83.78,229.76L84.77,235.44L90.72,264.19L91.71,268.11L96.66,284.58L97.66,287.3L102.61,298.66L103.6,300.54L109.55,309.69L110.54,310.93L116.48,316.99L117.47,317.82L125.4,323.16L126.39,323.7L136.3,328.14L137.29,328.5L149.18,332.07L150.17,332.31L163.06,334.7L164.05,334.82L174.95,335.38L175.94,335.36L190.8,334.2L191.79,334.1L223.5,331.65L224.49,331.56L283.95,324.54L284.94,324.35L300.8,320.43L301.79,320.13L317.64,314.29L318.63,313.87L332.51,307.1L333.5,306.54L344.4,299.3L345.39,298.53L355.3,289.79L356.29,288.78L365.21,278.42L366.2,277.1L373.13,266.65L374.12,264.96L381.06,251.47L382.05,249.28L388.99,231.86L389.98,229.05L396.92,207L397.91,203.49L405.83,172.17L406.83,167.85L415.74,125.28L416.73,120.2L432.59,41.13L433.58,37.26L437.54,24.59L438.53,22.27L441.51,17.94L442.5,17.37L444.48,17.69L445.47,18.71L447.45,22.31L448.44,24.89L451.42,36.01L452.41,40.83L456.37,65.02L457.36,72.26L463.31,122.58L464.3,131.77L476.19,238.29L477.18,245.76L483.13,283.27L484.12,288.29L489.07,308.37L490.06,311.51L495.02,323.73L496.01,325.62L500.96,333.28L501.95,334.57L510.87,344.55L511.86,345.58L522.76,355.77L523.75,356.53L530.69,360.76L531.68,361.21"/></g><g class="points"/><g class="text"/></g><g class="trace scatter trace8a1be1" style="stroke-miterlimit: 2; opacity: 1;"><g class="fills"/><g class="errorbars"/><g class="lines"><path class="js-line" style="vector-effect: non-scaling-stroke; fill: none; stroke: rgb(97, 156, 255); stroke-opacity: 1; stroke-width: 1.88976px; opacity: 1;" d="M25.32,336.81L29.28,316.87L30.27,310.65L34.24,280.32L35.23,271.45L41.17,210.14L42.16,199.13L50.09,118.15L51.08,110.4L55.05,87.55L56.04,84.1L58.02,80.5L59.01,80.12L60,80.67L60.99,82.12L62.97,87.77L63.96,91.84L67.93,114.32L68.92,121.24L84.77,236.51L85.76,242.05L91.71,269.2L92.7,272.81L97.66,287.75L98.65,290.19L104.59,301.94L105.58,303.5L111.53,311.25L112.52,312.31L119.46,318.45L120.45,319.17L128.37,323.98L129.37,324.47L139.27,328.58L140.27,328.92L152.16,331.99L153.15,332.17L165.04,333.45L166.03,333.49L181.88,333.42L182.88,333.37L208.64,331.34L209.63,331.24L268.1,324.61L269.09,324.41L289.9,319.45L290.89,319.2L305.75,314.63L306.74,314.26L319.62,308.54L320.61,308.03L332.51,301.02L333.5,300.35L343.41,292.53L344.4,291.63L353.31,282.24L354.31,281.06L363.22,268.91L364.22,267.37L371.15,255.17L372.14,253.2L379.08,237.49L380.07,234.96L387.01,214.89L388,211.67L395.92,182.74L396.92,178.71L405.83,138.77L406.83,133.97L424.66,49.56L425.65,45.94L429.62,34.08L430.61,31.93L433.58,27.67L434.57,27.04L436.55,27.23L437.54,28.03L439.53,31.03L440.52,33.25L443.49,43.13L444.48,47.41L448.44,69.24L449.43,75.81L455.38,122.2L456.37,130.78L470.24,247.87L471.24,254.72L477.18,288.8L478.17,293.28L483.13,311.26L484.12,314L489.07,324.6L490.06,326.18L495.02,332.45L496.01,333.46L508.89,345.03L509.88,345.94L522.76,357.07L523.75,357.76L530.69,361.5L531.68,361.88"/></g><g class="points"/><g class="text"/></g><g class="trace scatter trace2d624d" style="stroke-miterlimit: 2; opacity: 1;"><g class="fills"/><g class="errorbars"/><g class="lines"><path class="js-line" style="vector-effect: non-scaling-stroke; fill: none; stroke: rgb(245, 100, 227); stroke-opacity: 1; stroke-width: 1.88976px; opacity: 1;" d="M25.32,337L29.28,316.12L30.27,309.56L34.24,277.47L35.23,268.1L42.16,192.39L43.15,181.05L49.1,119.99L50.09,111.83L53.06,92.99L54.06,88.58L56.04,82.71L57.03,81.43L58.02,81.2L59.01,81.93L60.99,86.07L61.98,89.4L64.96,103.98L65.95,110L71.89,153.05L72.88,160.68L80.81,217.07L81.8,223.08L87.75,253.48L88.74,257.61L93.69,275.05L94.68,277.93L99.64,290.04L100.63,292.04L106.57,301.94L107.57,303.28L114.5,310.98L115.49,311.88L123.42,317.89L124.41,318.52L134.32,323.79L135.31,324.23L145.22,327.68L146.21,327.93L156.12,329.65L157.11,329.76L172.97,330.63L173.96,330.64L188.82,330.11L189.81,330.04L211.61,327.59L212.6,327.44L234.4,325.01L235.39,324.97L253.23,323.63L254.22,323.47L268.1,320.25L269.09,319.99L291.88,313.33L292.87,312.94L304.76,307.29L305.75,306.75L318.63,298.78L319.62,298.1L331.51,288.9L332.51,288.03L340.43,279.98L341.42,278.81L348.36,269.34L349.35,267.79L356.29,255.49L357.28,253.53L365.21,235.96L366.2,233.53L375.12,209.07L376.11,206.06L385.02,176.03L386.02,172.38L397.91,125.39L398.9,121.33L410.79,75.84L411.78,72.67L416.73,59.6L417.73,57.66L420.7,53.46L421.69,52.7L423.67,52.14L424.66,52.37L426.64,53.88L427.63,55.26L430.61,61.66L431.6,64.55L435.56,80.12L436.55,84.93L441.51,114.03L442.5,120.72L451.42,188.07L452.41,195.8L461.33,259.29L462.32,265.28L467.27,290.91L468.26,295.19L473.22,312.34L474.21,315.01L478.17,323.47L479.16,325.12L484.12,331.24L485.11,332.14L491.05,336.32L492.04,336.91L503.94,344.53L504.93,345.28L523.75,359.51L524.75,360.03L531.68,362.73"/></g><g class="points"/><g class="text"/></g></g></g><g class="overplot"/><path class="xlines-above crisp" style="fill: none; stroke-width: 1px; stroke: rgb(0, 0, 0); stroke-opacity: 0;" d=""/><path class="ylines-above crisp" style="fill: none; stroke-width: 1px; stroke: rgb(0, 0, 0); stroke-opacity: 0;" d=""/><g class="overlines-above"/><g class="xaxislayer-above"><path class="xtick ticks crisp" style="stroke: rgb(51, 51, 51); stroke-opacity: 1; stroke-width: 0.664176px;" d="M0,405v3.65296803652968" transform="translate(62.32,0)"/><path class="xtick ticks crisp" style="stroke: rgb(51, 51, 51); stroke-opacity: 1; stroke-width: 0.664176px;" d="M0,405v3.65296803652968" transform="translate(188.91,0)"/><path class="xtick ticks crisp" style="stroke: rgb(51, 51, 51); stroke-opacity: 1; stroke-width: 0.664176px;" d="M0,405v3.65296803652968" transform="translate(315.5,0)"/><path class="xtick ticks crisp" style="stroke: rgb(51, 51, 51); stroke-opacity: 1; stroke-width: 0.664176px;" d="M0,405v3.65296803652968" transform="translate(442.09,0)"/><path class="xtick ticks crisp" style="stroke: rgb(51, 51, 51); stroke-opacity: 1; stroke-width: 0.664176px;" d="M0,405v3.65296803652968" transform="translate(568.68,0)"/><g class="xtick"><text text-anchor="middle" x="0" y="422.6803652968037" style="font-family: TOBESTRIPPEDOpen SansTOBESTRIPPED, verdana, arial, sans-serif; font-size: 11.6895px; fill: rgb(77, 77, 77); fill-opacity: 1; white-space: pre;" transform="translate(62.32,0)">0.00</text></g><g class="xtick"><text text-anchor="middle" x="0" y="422.6803652968037" style="font-family: TOBESTRIPPEDOpen SansTOBESTRIPPED, verdana, arial, sans-serif; font-size: 11.6895px; fill: rgb(77, 77, 77); fill-opacity: 1; white-space: pre;" transform="translate(188.91,0)">0.25</text></g><g class="xtick"><text text-anchor="middle" x="0" y="422.6803652968037" style="font-family: TOBESTRIPPEDOpen SansTOBESTRIPPED, verdana, arial, sans-serif; font-size: 11.6895px; fill: rgb(77, 77, 77); fill-opacity: 1; white-space: pre;" transform="translate(315.5,0)">0.50</text></g><g class="xtick"><text text-anchor="middle" x="0" y="422.6803652968037" style="font-family: TOBESTRIPPEDOpen SansTOBESTRIPPED, verdana, arial, sans-serif; font-size: 11.6895px; fill: rgb(77, 77, 77); fill-opacity: 1; white-space: pre;" transform="translate(442.09,0)">0.75</text></g><g class="xtick"><text text-anchor="middle" x="0" y="422.6803652968037" style="font-family: TOBESTRIPPEDOpen SansTOBESTRIPPED, verdana, arial, sans-serif; font-size: 11.6895px; fill: rgb(77, 77, 77); fill-opacity: 1; white-space: pre;" transform="translate(568.68,0)">1.00</text></g></g><g class="yaxislayer-above"><path class="ytick ticks crisp" style="stroke: rgb(51, 51, 51); stroke-opacity: 1; stroke-width: 0.664176px;" d="M36,0h-3.65296803652968" transform="translate(0,388.61)"/><path class="ytick ticks crisp" style="stroke: rgb(51, 51, 51); stroke-opacity: 1; stroke-width: 0.664176px;" d="M36,0h-3.65296803652968" transform="translate(0,289.14)"/><path class="ytick ticks crisp" style="stroke: rgb(51, 51, 51); stroke-opacity: 1; stroke-width: 0.664176px;" d="M36,0h-3.65296803652968" transform="translate(0,189.67)"/><path class="ytick ticks crisp" style="stroke: rgb(51, 51, 51); stroke-opacity: 1; stroke-width: 0.664176px;" d="M36,0h-3.65296803652968" transform="translate(0,90.19)"/><g class="ytick"><text text-anchor="end" x="30.00913242009132" y="4.09132420091325" style="font-family: TOBESTRIPPEDOpen SansTOBESTRIPPED, verdana, arial, sans-serif; font-size: 11.6895px; fill: rgb(77, 77, 77); fill-opacity: 1; white-space: pre;" transform="translate(0,388.61)">0</text></g><g class="ytick"><text text-anchor="end" x="30.00913242009132" y="4.09132420091325" style="font-family: TOBESTRIPPEDOpen SansTOBESTRIPPED, verdana, arial, sans-serif; font-size: 11.6895px; fill: rgb(77, 77, 77); fill-opacity: 1; white-space: pre;" transform="translate(0,289.14)">1</text></g><g class="ytick"><text text-anchor="end" x="30.00913242009132" y="4.09132420091325" style="font-family: TOBESTRIPPEDOpen SansTOBESTRIPPED, verdana, arial, sans-serif; font-size: 11.6895px; fill: rgb(77, 77, 77); fill-opacity: 1; white-space: pre;" transform="translate(0,189.67)">2</text></g><g class="ytick"><text text-anchor="end" x="30.00913242009132" y="4.09132420091325" style="font-family: TOBESTRIPPEDOpen SansTOBESTRIPPED, verdana, arial, sans-serif; font-size: 11.6895px; fill: rgb(77, 77, 77); fill-opacity: 1; white-space: pre;" transform="translate(0,90.19)">3</text></g></g><g class="overaxes-above"/></g></g><g class="polarlayer"/><g class="ternarylayer"/><g class="geolayer"/><g class="funnelarealayer"/><g class="pielayer"/><g class="treemaplayer"/><g class="sunburstlayer"/><g class="glimages"/><defs id="topdefs-7c0160"><g class="clips"/><clipPath id="legend7c0160"><rect width="84.22047244094487" height="174.2204724409449" x="1.88976377952756" y="1.88976377952756"/></clipPath></defs><g class="layer-above"><g class="imagelayer"/><g class="shapelayer"><path data-index="0" fill-rule="evenodd" d="M37,404H594V24H37Z" style="opacity: 1; stroke: rgb(51, 51, 51); stroke-opacity: 1; fill: rgb(0, 0, 0); fill-opacity: 0; stroke-width: 0.664176px;"/></g></g><g class="infolayer"><g class="legend" pointer-events="all" transform="translate(605.14, 61.02755905511821)"><rect class="bg" shape-rendering="crispEdges" style="stroke: rgb(0, 0, 0); stroke-opacity: 0; fill: rgb(255, 255, 255); fill-opacity: 1; stroke-width: 1.88976px;" width="86.11023622047244" height="176.11023622047244" x="0.94488188976378" y="0.94488188976378"/><g class="scrollbox" transform="translate(0, 0)" clip-path="url('#legend7c0160')"><g class="groups" transform="translate(0, 0)"><g class="traces" style="opacity: 1;" transform="translate(1.88976377952756, 16.38976377952756)"><text class="legendtext user-select-none" text-anchor="start" style="font-family: TOBESTRIPPEDOpen SansTOBESTRIPPED, verdana, arial, sans-serif; font-size: 11.6895px; fill: rgb(0, 0, 0); fill-opacity: 1; white-space: pre;" x="40" y="4.55890410958905">MAC A</text><g class="layers" style="opacity: 1;"><g class="legendfill"/><g class="legendlines"><path class="js-line" d="M5,0h30" style="fill: none; stroke: rgb(248, 118, 109); stroke-opacity: 1; stroke-width: 1.88976px;"/></g><g class="legendsymbols"><g class="legendpoints"/></g></g><rect class="legendtoggle" style="cursor: pointer; fill: rgb(0, 0, 0); fill-opacity: 0;" pointer-events="all" x="0" y="-9.5" width="79.06666564941406" height="19"/></g></g><g class="groups" transform="translate(0, 10)"><g class="traces" style="opacity: 1;" transform="translate(1.88976377952756, 35.389763779527556)"><text class="legendtext user-select-none" text-anchor="start" style="font-family: TOBESTRIPPEDOpen SansTOBESTRIPPED, verdana, arial, sans-serif; font-size: 11.6895px; fill: rgb(0, 0, 0); fill-opacity: 1; white-space: pre;" x="40" y="4.55890410958905">MAC B</text><g class="layers" style="opacity: 1;"><g class="legendfill"/><g class="legendlines"><path class="js-line" d="M5,0h30" style="fill: none; stroke: rgb(183, 159, 0); stroke-opacity: 1; stroke-width: 1.88976px;"/></g><g class="legendsymbols"><g class="legendpoints"/></g></g><rect class="legendtoggle" style="cursor: pointer; fill: rgb(0, 0, 0); fill-opacity: 0;" pointer-events="all" x="0" y="-9.5" width="79.06666564941406" height="19"/></g></g><g class="groups" transform="translate(0, 20)"><g class="traces" style="opacity: 1;" transform="translate(1.88976377952756, 54.38976377952756)"><text class="legendtext user-select-none" text-anchor="start" style="font-family: TOBESTRIPPEDOpen SansTOBESTRIPPED, verdana, arial, sans-serif; font-size: 11.6895px; fill: rgb(0, 0, 0); fill-opacity: 1; white-space: pre;" x="40" y="4.55890410958905">MAC C</text><g class="layers" style="opacity: 1;"><g class="legendfill"/><g class="legendlines"><path class="js-line" d="M5,0h30" style="fill: none; stroke: rgb(0, 186, 56); stroke-opacity: 1; stroke-width: 1.88976px;"/></g><g class="legendsymbols"><g class="legendpoints"/></g></g><rect class="legendtoggle" style="cursor: pointer; fill: rgb(0, 0, 0); fill-opacity: 0;" pointer-events="all" x="0" y="-9.5" width="79.06666564941406" height="19"/></g></g><g class="groups" transform="translate(0, 30)"><g class="traces" style="opacity: 1;" transform="translate(1.88976377952756, 73.38976377952756)"><text class="legendtext user-select-none" text-anchor="start" style="font-family: TOBESTRIPPEDOpen SansTOBESTRIPPED, verdana, arial, sans-serif; font-size: 11.6895px; fill: rgb(0, 0, 0); fill-opacity: 1; white-space: pre;" x="40" y="4.55890410958905">MO A</text><g class="layers" style="opacity: 1;"><g class="legendfill"/><g class="legendlines"><path class="js-line" d="M5,0h30" style="fill: none; stroke: rgb(0, 191, 196); stroke-opacity: 1; stroke-width: 1.88976px;"/></g><g class="legendsymbols"><g class="legendpoints"/></g></g><rect class="legendtoggle" style="cursor: pointer; fill: rgb(0, 0, 0); fill-opacity: 0;" pointer-events="all" x="0" y="-9.5" width="79.06666564941406" height="19"/></g></g><g class="groups" transform="translate(0, 40)"><g class="traces" style="opacity: 1;" transform="translate(1.88976377952756, 92.38976377952756)"><text class="legendtext user-select-none" text-anchor="start" style="font-family: TOBESTRIPPEDOpen SansTOBESTRIPPED, verdana, arial, sans-serif; font-size: 11.6895px; fill: rgb(0, 0, 0); fill-opacity: 1; white-space: pre;" x="40" y="4.55890410958905">MO B</text><g class="layers" style="opacity: 1;"><g class="legendfill"/><g class="legendlines"><path class="js-line" d="M5,0h30" style="fill: none; stroke: rgb(97, 156, 255); stroke-opacity: 1; stroke-width: 1.88976px;"/></g><g class="legendsymbols"><g class="legendpoints"/></g></g><rect class="legendtoggle" style="cursor: pointer; fill: rgb(0, 0, 0); fill-opacity: 0;" pointer-events="all" x="0" y="-9.5" width="79.06666564941406" height="19"/></g></g><g class="groups" transform="translate(0, 50)"><g class="traces" style="opacity: 1;" transform="translate(1.88976377952756, 111.38976377952756)"><text class="legendtext user-select-none" text-anchor="start" style="font-family: TOBESTRIPPEDOpen SansTOBESTRIPPED, verdana, arial, sans-serif; font-size: 11.6895px; fill: rgb(0, 0, 0); fill-opacity: 1; white-space: pre;" x="40" y="4.55890410958905">MO C</text><g class="layers" style="opacity: 1;"><g class="legendfill"/><g class="legendlines"><path class="js-line" d="M5,0h30" style="fill: none; stroke: rgb(245, 100, 227); stroke-opacity: 1; stroke-width: 1.88976px;"/></g><g class="legendsymbols"><g class="legendpoints"/></g></g><rect class="legendtoggle" style="cursor: pointer; fill: rgb(0, 0, 0); fill-opacity: 0;" pointer-events="all" x="0" y="-9.5" width="79.06666564941406" height="19"/></g></g></g><rect class="scrollbar" rx="20" ry="3" width="0" height="0" style="fill: rgb(128, 139, 164); fill-opacity: 1;" x="0" y="0"/></g><g class="g-gtitle"/><g class="g-xtitle" transform="translate(0,-14.402541487184237)"><text class="xtitle" style="font-family: TOBESTRIPPEDOpen SansTOBESTRIPPED, verdana, arial, sans-serif; font-size: 14.61px; fill: rgb(0, 0, 0); opacity: 1; font-weight: normal; white-space: pre;" x="315.5" y="457.8356164383561" text-anchor="middle">Bvalues</text></g><g class="g-ytitle" transform="translate(20.0498046875,0)"><text class="ytitle" transform="rotate(-90,-2.2237442922373987,214)" style="font-family: TOBESTRIPPEDOpen SansTOBESTRIPPED, verdana, arial, sans-serif; font-size: 14.61px; fill: rgb(0, 0, 0); opacity: 1; font-weight: normal; white-space: pre;" x="-2.2237442922373987" y="214" text-anchor="middle">density</text></g><g class="annotation" data-index="0" style="opacity: 1;"><g class="annotation-text-g" transform="rotate(0,633.64,9.999999999999998)"><g class="cursor-pointer" transform="translate(605, -4)"><rect class="bg" style="stroke-width: 1px; stroke: rgb(0, 0, 0); stroke-opacity: 0; fill: rgb(0, 0, 0); fill-opacity: 0;" x="0.5" y="0.5" width="56" height="27"/><text class="annotation-text" style="font-family: TOBESTRIPPEDOpen SansTOBESTRIPPED, verdana, arial, sans-serif; font-size: 14.6119px; fill: rgb(0, 0, 0); fill-opacity: 1; white-space: pre;" text-anchor="middle" x="28.349609375" y="19.81640625">sample</text></g></g></g></g></svg>