<svg class="main-svg" xmlns="http://www.w3.org/2000/svg" xmlns:xlink="http://www.w3.org/1999/xlink" width="700" height="450" style="" viewBox="0 0 700 450"><rect x="0" y="0" width="700" height="450" style="fill: rgb(255, 255, 255); fill-opacity: 1;"/><defs id="defs-ac822a"><g class="clips"><clipPath id="clipac822axyplot" class="plotclip"><rect width="557" height="380"/></clipPath><clipPath class="axesclip" id="clipac822ax"><rect x="37" y="0" width="557" height="450"/></clipPath><clipPath class="axesclip" id="clipac822ay"><rect x="0" y="24" width="700" height="380"/></clipPath><clipPath class="axesclip" id="clipac822axy"><rect x="37" y="24" width="557" height="380"/></clipPath></g><g class="gradients"/></defs><g class="bglayer"/><g class="layer-below"><g class="imagelayer"/><g class="shapelayer"/></g><g class="cartesianlayer"><g class="subplot xy"><g class="layer-subplot"><g class="shapelayer"/><g class="imagelayer"/></g><g class="gridlayer"><g class="x"/><g class="y"/></g><g class="zerolinelayer"/><path class="xlines-below"/><path class="ylines-below"/><g class="overlines-below"/><g class="xaxislayer-below"/><g class="yaxislayer-below"/><g class="overaxes-below"/><g class="plot" transform="translate(37, 24)" clip-path="url('#clipac822axyplot')"><g class="scatterlayer mlayer"><g class="trace scatter trace17c859" style="stroke-miterlimit: 2; opacity: 1;"><g class="fills"/><g class="errorbars"/><g class="lines"><path class="js-line" style="vector-effect: non-scaling-stroke; fill: none; stroke: rgb(248, 118, 109); stroke-opacity: 1; stroke-width: 1.88976px; opacity: 1;" d="M25.32,291.24L30.27,246.04L31.26,235.8L42.16,124.82L43.15,117.24L47.12,94.79L48.11,91.57L50.09,87.86L51.08,87.36L52.07,87.74L53.06,88.96L55.05,94.18L56.04,97.85L60,118.38L60.99,124.68L76.85,229.67L77.84,234.71L83.78,259.98L84.77,263.39L89.73,277.75L90.72,280.13L96.66,291.82L97.66,293.4L103.6,301.29L104.59,302.38L111.53,308.68L112.52,309.42L120.45,314.35L121.44,314.86L131.35,319.16L132.34,319.52L145.22,323.35L146.21,323.59L161.08,326.31L162.07,326.43L175.94,327.44L176.93,327.47L218.55,327.6L219.54,327.55L238.37,325.88L239.36,325.76L288.9,319.05L289.9,318.79L302.78,314.73L303.77,314.37L318.63,308.24L319.62,307.77L332.51,300.69L333.5,300.06L343.41,292.8L344.4,291.96L353.31,283.18L354.31,282.05L362.23,271.64L363.22,270.15L371.15,256.77L372.14,254.91L380.07,238.24L381.06,235.91L388.99,214.94L389.98,211.98L396.92,188.71L397.91,185.01L405.83,151.96L406.83,147.43L428.63,45.78L429.62,42.4L433.58,31.61L434.57,29.76L437.54,26.36L438.53,26L440.52,26.74L441.51,27.77L443.49,31.18L444.48,33.57L447.45,43.85L448.44,48.2L452.41,70.11L453.4,76.64L459.34,122.75L460.34,131.3L476.19,266.16L477.18,272.97L483.13,307.34L484.12,311.98L489.07,330.83L490.06,333.81L495.02,345.42L496.01,347.19L500.96,353.83L501.95,354.8L506.91,358.39L507.9,358.91L513.85,361.01L514.84,361.24L523.75,362.37L524.75,362.43L531.68,362.66"/></g><g class="points"/><g class="text"/></g><g class="trace scatter trace59b6bf" style="stroke-miterlimit: 2; opacity: 1;"><g class="fills"/><g class="errorbars"/><g class="lines"><path class="js-line" style="vector-effect: non-scaling-stroke; fill: none; stroke: rgb(183, 159, 0); stroke-opacity: 1; stroke-width: 1.88976px; opacity: 1;" d="M25.32,303.91L30.27,261.9L31.26,252.05L44.15,122.14L45.14,115.23L48.11,99.64L49.1,96.49L51.08,93.04L52.07,92.71L53.06,93.3L54.06,94.77L56.04,100.51L57.03,104.46L60.99,126.03L61.98,132.54L75.86,225.55L76.85,230.82L81.8,253.17L82.79,256.92L87.75,272.55L88.74,275.15L94.68,287.95L95.67,289.71L101.62,298.52L102.61,299.75L109.55,306.87L110.54,307.71L118.47,313.19L119.46,313.75L129.37,318.37L130.36,318.76L142.25,322.49L143.24,322.73L155.13,324.94L156.12,325.08L172.97,326.56L173.96,326.6L191.79,326.59L192.78,326.54L214.59,324.71L215.58,324.61L268.1,319.53L269.09,319.39L287.91,315.85L288.9,315.61L303.77,311.21L304.76,310.85L315.66,305.95L316.65,305.41L327.55,298.39L328.54,297.64L337.46,290L338.45,289.05L348.36,278.21L349.35,277L359.26,263.41L360.25,261.87L368.18,247.92L369.17,245.95L376.11,230.28L377.1,227.76L384.03,208.08L385.02,204.96L391.96,180.84L392.95,177.06L401.87,139.32L402.86,134.75L422.68,43.53L423.67,40.1L427.63,29.26L428.63,27.33L431.6,23.84L432.59,23.52L434.57,24.14L435.56,25.12L437.54,28.61L438.53,31.1L441.51,41.39L442.5,45.79L446.46,68.15L447.45,74.76L453.4,121.63L454.39,130.29L469.25,258.42L470.24,265.46L476.19,301.22L477.18,306.1L482.14,326.09L483.13,329.3L488.08,341.98L489.07,343.94L494.03,351.5L495.02,352.64L499.97,356.95L500.96,357.59L506.91,360.28L507.9,360.58L515.83,362.06L516.82,362.16L530.69,362.72L531.68,362.73"/></g><g class="points"/><g class="text"/></g><g class="trace scatter tracebe54e0" style="stroke-miterlimit: 2; opacity: 1;"><g class="fills"/><g class="errorbars"/><g class="lines"><path class="js-line" style="vector-effect: non-scaling-stroke; fill: none; stroke: rgb(0, 186, 56); stroke-opacity: 1; stroke-width: 1.88976px; opacity: 1;" d="M25.32,291.95L30.27,246.53L31.26,236.22L43.15,116.03L44.15,109.05L47.12,93.35L48.11,90.08L50.09,86.35L51.08,85.88L52.07,86.33L53.06,87.84L55.05,93.31L56.04,97.14L60,118.63L60.99,125.16L76.85,232.81L77.84,237.89L82.79,259.52L83.78,263.1L88.74,278.07L89.73,280.53L95.67,292.51L96.66,294.12L102.61,302.09L103.6,303.19L110.54,309.51L111.53,310.25L119.46,315.1L120.45,315.59L130.36,319.54L131.35,319.85L143.24,322.88L144.23,323.08L163.06,326.17L164.05,326.3L183.87,328.21L184.86,328.26L201.7,328.4L202.69,328.36L224.49,326.53L225.49,326.43L278,320.66L279,320.46L297.82,315.71L298.81,315.41L314.67,309.69L315.66,309.27L327.55,303.28L328.54,302.7L338.45,295.98L339.44,295.21L348.36,287.29L349.35,286.28L357.28,277.09L358.27,275.79L366.2,263.99L367.19,262.33L375.12,247.22L376.11,245.08L384.03,225.74L385.02,223.01L391.96,201.57L392.95,198.13L399.89,171.25L400.88,166.98L409.8,124.37L410.79,119.25L425.65,45.12L426.64,41.09L431.6,24.97L432.59,22.67L435.56,18.17L436.55,17.5L438.53,17.49L439.53,18.2L441.51,21.27L442.5,23.54L445.47,33.43L446.46,37.85L450.43,60.31L451.42,67.07L457.36,115.53L458.35,124.59L473.22,258.59L474.21,265.94L480.15,302.96L481.14,307.97L486.1,328.18L487.09,331.38L492.04,343.74L493.04,345.62L497.99,352.67L498.98,353.71L503.94,357.57L504.93,358.14L510.87,360.51L511.86,360.78L520.78,362.2L521.77,362.28L531.68,362.68"/></g><g class="points"/><g class="text"/></g><g class="trace scatter trace599e0f" style="stroke-miterlimit: 2; opacity: 1;"><g class="fills"/><g class="errorbars"/><g class="lines"><path class="js-line" style="vector-effect: non-scaling-stroke; fill: none; stroke: rgb(0, 191, 196); stroke-opacity: 1; stroke-width: 1.88976px; opacity: 1;" d="M25.32,290.17L30.27,244.63L31.26,234.33L42.16,122.76L43.15,115.13L47.12,92.64L48.11,89.41L50.09,85.73L51.08,85.25L52.07,85.67L53.06,87.03L55.05,92.4L56.04,96.18L59.01,111.23L60,117.34L67.93,174.15L68.92,181.37L75.86,226.53L76.85,232L82.79,259.28L83.78,262.94L88.74,278.28L89.73,280.79L94.68,291.27L95.67,292.99L101.62,301.42L102.61,302.55L108.56,308.2L109.55,308.98L117.47,314.11L118.47,314.64L129.37,319.59L130.36,319.97L142.25,323.66L143.24,323.9L158.1,326.51L159.09,326.65L177.92,328.45L178.91,328.49L209.63,328.72L210.62,328.69L227.47,327.44L228.46,327.32L283.95,319.45L284.94,319.23L302.78,314.36L303.77,314.02L315.66,309.19L316.65,308.7L327.55,302.58L328.54,301.94L339.44,294.05L340.43,293.23L349.35,284.74L350.34,283.66L359.26,272.63L360.25,271.25L368.18,258.9L369.17,257.17L377.1,241.47L378.09,239.25L385.02,221.75L386.02,218.96L393.94,193.72L394.93,190.2L402.86,159.12L403.85,154.89L416.73,95.62L417.73,90.98L426.64,53.1L427.63,49.65L432.59,36.02L433.58,34.18L436.55,30.77L437.54,30.35L439.53,30.73L440.52,31.6L442.5,34.6L443.49,36.74L446.46,45.94L447.45,49.93L451.42,70.11L452.41,76.22L458.35,119.8L459.34,128.01L477.18,275.07L478.17,281.45L483.13,308.71L484.12,313.24L489.07,331.63L490.06,334.53L495.02,345.8L496.01,347.5L500.96,353.93L501.95,354.87L506.91,358.36L507.9,358.86L513.85,360.95L514.84,361.18L523.75,362.35L524.75,362.41L531.68,362.66"/></g><g class="points"/><g class="text"/></g><g class="trace scatter trace5f879d" style="stroke-miterlimit: 2; opacity: 1;"><g class="fills"/><g class="errorbars"/><g class="lines"><path class="js-line" style="vector-effect: non-scaling-stroke; fill: none; stroke: rgb(97, 156, 255); stroke-opacity: 1; stroke-width: 1.88976px; opacity: 1;" d="M25.32,291.6L30.27,245.98L31.26,235.62L43.15,114.72L44.15,107.7L47.12,91.81L48.11,88.52L50.09,84.78L51.08,84.31L52.07,84.76L53.06,86.21L55.05,91.76L56.04,95.64L60,117.37L60.99,123.99L76.85,232.94L77.84,238.04L82.79,259.69L83.78,263.25L88.74,278.1L89.73,280.52L95.67,292.3L96.66,293.88L102.61,301.74L103.6,302.83L110.54,309.16L111.53,309.92L120.45,315.52L121.44,316.03L131.35,320.27L132.34,320.62L146.21,324.61L147.2,324.84L161.08,327.39L162.07,327.52L176.93,328.44L177.92,328.45L199.72,327.98L200.71,327.93L252.24,324.09L253.23,323.99L280.98,320.22L281.97,320.04L294.85,316.75L295.84,316.43L311.7,310.4L312.69,309.97L325.57,303.74L326.56,303.18L337.46,296.06L338.45,295.31L348.36,286.55L349.35,285.54L357.28,276.44L358.27,275.16L366.2,263.48L367.19,261.82L374.12,248.65L375.12,246.53L383.04,227.32L384.03,224.62L391.96,200.25L392.95,196.84L400.88,166.64L401.87,162.51L412.77,113.15L413.76,108.45L425.65,55.5L426.64,51.79L431.6,36.62L432.59,34.36L435.56,29.69L436.55,28.84L438.53,28.3L439.53,28.69L441.51,30.85L442.5,32.59L445.47,40.59L446.46,44.26L450.43,63.41L451.42,69.3L456.37,104.46L457.36,112.44L477.18,277.37L478.17,283.65L483.13,310.4L484.12,314.83L489.07,332.73L490.06,335.54L495.02,346.47L496.01,348.11L500.96,354.33L501.95,355.24L506.91,358.6L507.9,359.08L513.85,361.07L514.84,361.29L524.75,362.43L525.74,362.48L531.68,362.67"/></g><g class="points"/><g class="text"/></g><g class="trace scatter tracec9ac8b" style="stroke-miterlimit: 2; opacity: 1;"><g class="fills"/><g class="errorbars"/><g class="lines"><path class="js-line" style="vector-effect: non-scaling-stroke; fill: none; stroke: rgb(245, 100, 227); stroke-opacity: 1; stroke-width: 1.88976px; opacity: 1;" d="M25.32,298.88L30.27,255.19L31.26,245.16L43.15,123.54L44.15,116.17L47.12,99.26L48.11,95.42L50.09,90.67L51.08,89.89L52.07,90.02L53.06,91.04L55.05,95.6L56.04,99.12L59.01,113.74L60,119.64L66.94,168.46L67.93,175.69L74.86,221.51L75.86,227.1L81.8,255.17L82.79,258.98L87.75,274.87L88.74,277.49L93.69,288.45L94.68,290.27L100.63,299.22L101.62,300.44L108.56,307.42L109.55,308.24L117.47,313.66L118.47,314.23L128.37,318.88L129.37,319.25L140.27,322.48L141.26,322.7L154.14,324.68L155.13,324.79L182.88,326.84L183.87,326.89L201.7,327.11L202.69,327.07L218.55,325.59L219.54,325.46L250.26,322.17L251.25,322.07L276.02,319.08L277.01,318.91L293.86,315.28L294.85,315.01L306.74,310.94L307.73,310.51L318.63,304.87L319.62,304.27L332.51,295.51L333.5,294.77L344.4,285.6L345.39,284.64L353.31,275.76L354.31,274.48L362.23,262.77L363.22,261.11L371.15,246.15L372.14,244.06L380.07,225.25L381.06,222.62L388.99,198.74L389.98,195.4L397.91,165.56L398.9,161.46L408.81,116.52L409.8,111.75L422.68,52.38L423.67,48.57L428.63,32.98L429.62,30.71L432.59,26.07L433.58,25.26L435.56,24.9L436.55,25.45L438.53,27.88L439.53,29.79L442.5,38.49L443.49,42.4L447.45,62.63L448.44,68.87L454.39,113.7L455.38,122.17L472.23,266.38L473.22,273.16L479.16,307.33L480.15,311.92L485.11,330.63L486.1,333.57L491.05,345.11L492.04,346.86L497,353.51L497.99,354.48L502.94,358.13L503.94,358.66L509.88,360.84L510.87,361.09L519.79,362.31L520.78,362.38L531.68,362.71"/></g><g class="points"/><g class="text"/></g></g></g><g class="overplot"/><path class="xlines-above crisp" style="fill: none; stroke-width: 1px; stroke: rgb(0, 0, 0); stroke-opacity: 0;" d=""/><path class="ylines-above crisp" style="fill: none; stroke-width: 1px; stroke: rgb(0, 0, 0); stroke-opacity: 0;" d=""/><g class="overlines-above"/><g class="xaxislayer-above"><path class="xtick ticks crisp" style="stroke: rgb(51, 51, 51); stroke-opacity: 1; stroke-width: 0.664176px;" d="M0,405v3.65296803652968" transform="translate(52.74,0)"/><path class="xtick ticks crisp" style="stroke: rgb(51, 51, 51); stroke-opacity: 1; stroke-width: 0.664176px;" d="M0,405v3.65296803652968" transform="translate(183.08,0)"/><path class="xtick ticks crisp" style="stroke: rgb(51, 51, 51); stroke-opacity: 1; stroke-width: 0.664176px;" d="M0,405v3.65296803652968" transform="translate(313.43,0)"/><path class="xtick ticks crisp" style="stroke: rgb(51, 51, 51); stroke-opacity: 1; stroke-width: 0.664176px;" d="M0,405v3.65296803652968" transform="translate(443.77,0)"/><path class="xtick ticks crisp" style="stroke: rgb(51, 51, 51); stroke-opacity: 1; stroke-width: 0.664176px;" d="M0,405v3.65296803652968" transform="translate(574.12,0)"/><g class="xtick"><text text-anchor="middle" x="0" y="422.6803652968037" style="font-family: TOBESTRIPPEDOpen SansTOBESTRIPPED, verdana, arial, sans-serif; font-size: 11.6895px; fill: rgb(77, 77, 77); fill-opacity: 1; white-space: pre;" transform="translate(52.74,0)">0.00</text></g><g class="xtick"><text text-anchor="middle" x="0" y="422.6803652968037" style="font-family: TOBESTRIPPEDOpen SansTOBESTRIPPED, verdana, arial, sans-serif; font-size: 11.6895px; fill: rgb(77, 77, 77); fill-opacity: 1; white-space: pre;" transform="translate(183.08,0)">0.25</text></g><g class="xtick"><text text-anchor="middle" x="0" y="422.6803652968037" style="font-family: TOBESTRIPPEDOpen SansTOBESTRIPPED, verdana, arial, sans-serif; font-size: 11.6895px; fill: rgb(77, 77, 77); fill-opacity: 1; white-space: pre;" transform="translate(313.43,0)">0.50</text></g><g class="xtick"><text text-anchor="middle" x="0" y="422.6803652968037" style="font-family: TOBESTRIPPEDOpen SansTOBESTRIPPED, verdana, arial, sans-serif; font-size: 11.6895px; fill: rgb(77, 77, 77); fill-opacity: 1; white-space: pre;" transform="translate(443.77,0)">0.75</text></g><g class="xtick"><text text-anchor="middle" x="0" y="422.6803652968037" style="font-family: TOBESTRIPPEDOpen SansTOBESTRIPPED, verdana, arial, sans-serif; font-size: 11.6895px; fill: rgb(77, 77, 77); fill-opacity: 1; white-space: pre;" transform="translate(574.12,0)">1.00</text></g></g><g class="yaxislayer-above"><path class="ytick ticks crisp" style="stroke: rgb(51, 51, 51); stroke-opacity: 1; stroke-width: 0.664176px;" d="M36,0h-3.65296803652968" transform="translate(0,386.77)"/><path class="ytick ticks crisp" style="stroke: rgb(51, 51, 51); stroke-opacity: 1; stroke-width: 0.664176px;" d="M36,0h-3.65296803652968" transform="translate(0,289.58)"/><path class="ytick ticks crisp" style="stroke: rgb(51, 51, 51); stroke-opacity: 1; stroke-width: 0.664176px;" d="M36,0h-3.65296803652968" transform="translate(0,192.39)"/><path class="ytick ticks crisp" style="stroke: rgb(51, 51, 51); stroke-opacity: 1; stroke-width: 0.664176px;" d="M36,0h-3.65296803652968" transform="translate(0,95.2)"/><g class="ytick"><text text-anchor="end" x="30.00913242009132" y="4.09132420091325" style="font-family: TOBESTRIPPEDOpen SansTOBESTRIPPED, verdana, arial, sans-serif; font-size: 11.6895px; fill: rgb(77, 77, 77); fill-opacity: 1; white-space: pre;" transform="translate(0,386.77)">0</text></g><g class="ytick"><text text-anchor="end" x="30.00913242009132" y="4.09132420091325" style="font-family: TOBESTRIPPEDOpen SansTOBESTRIPPED, verdana, arial, sans-serif; font-size: 11.6895px; fill: rgb(77, 77, 77); fill-opacity: 1; white-space: pre;" transform="translate(0,289.58)">1</text></g><g class="ytick"><text text-anchor="end" x="30.00913242009132" y="4.09132420091325" style="font-family: TOBESTRIPPEDOpen SansTOBESTRIPPED, verdana, arial, sans-serif; font-size: 11.6895px; fill: rgb(77, 77, 77); fill-opacity: 1; white-space: pre;" transform="translate(0,192.39)">2</text></g><g class="ytick"><text text-anchor="end" x="30.00913242009132" y="4.09132420091325" style="font-family: TOBESTRIPPEDOpen SansTOBESTRIPPED, verdana, arial, sans-serif; font-size: 11.6895px; fill: rgb(77, 77, 77); fill-opacity: 1; white-space: pre;" transform="translate(0,95.2)">3</text></g></g><g class="overaxes-above"/></g></g><g class="polarlayer"/><g class="ternarylayer"/><g class="geolayer"/><g class="funnelarealayer"/><g class="pielayer"/><g class="treemaplayer"/><g class="sunburstlayer"/><g class="glimages"/><defs id="topdefs-ac822a"><g class="clips"/><clipPath id="legendac822a"><rect width="84.22047244094487" height="174.2204724409449" x="1.88976377952756" y="1.88976377952756"/></clipPath></defs><g class="layer-above"><g class="imagelayer"/><g class="shapelayer"><path data-index="0" fill-rule="evenodd" d="M37,404H594V24H37Z" style="opacity: 1; stroke: rgb(51, 51, 51); stroke-opacity: 1; fill: rgb(0, 0, 0); fill-opacity: 0; stroke-width: 0.664176px;"/></g></g><g class="infolayer"><g class="legend" pointer-events="all" transform="translate(605.14, 61.02755905511821)"><rect class="bg" shape-rendering="crispEdges" style="stroke: rgb(0, 0, 0); stroke-opacity: 0; fill: rgb(255, 255, 255); fill-opacity: 1; stroke-width: 1.88976px;" width="86.11023622047244" height="176.11023622047244" x="0.94488188976378" y="0.94488188976378"/><g class="scrollbox" transform="translate(0, 0)" clip-path="url('#legendac822a')"><g class="groups" transform="translate(0, 0)"><g class="traces" style="opacity: 1;" transform="translate(1.88976377952756, 16.38976377952756)"><text class="legendtext user-select-none" text-anchor="start" style="font-family: TOBESTRIPPEDOpen SansTOBESTRIPPED, verdana, arial, sans-serif; font-size: 11.6895px; fill: rgb(0, 0, 0); fill-opacity: 1; white-space: pre;" x="40" y="4.55890410958905">MAC A</text><g class="layers" style="opacity: 1;"><g class="legendfill"/><g class="legendlines"><path class="js-line" d="M5,0h30" style="fill: none; stroke: rgb(248, 118, 109); stroke-opacity: 1; stroke-width: 1.88976px;"/></g><g class="legendsymbols"><g class="legendpoints"/></g></g><rect class="legendtoggle" style="cursor: pointer; fill: rgb(0, 0, 0); fill-opacity: 0;" pointer-events="all" x="0" y="-9.5" width="79.06666564941406" height="19"/></g></g><g class="groups" transform="translate(0, 10)"><g class="traces" style="opacity: 1;" transform="translate(1.88976377952756, 35.389763779527556)"><text class="legendtext user-select-none" text-anchor="start" style="font-family: TOBESTRIPPEDOpen SansTOBESTRIPPED, verdana, arial, sans-serif; font-size: 11.6895px; fill: rgb(0, 0, 0); fill-opacity: 1; white-space: pre;" x="40" y="4.55890410958905">MAC B</text><g class="layers" style="opacity: 1;"><g class="legendfill"/><g class="legendlines"><path class="js-line" d="M5,0h30" style="fill: none; stroke: rgb(183, 159, 0); stroke-opacity: 1; stroke-width: 1.88976px;"/></g><g class="legendsymbols"><g class="legendpoints"/></g></g><rect class="legendtoggle" style="cursor: pointer; fill: rgb(0, 0, 0); fill-opacity: 0;" pointer-events="all" x="0" y="-9.5" width="79.06666564941406" height="19"/></g></g><g class="groups" transform="translate(0, 20)"><g class="traces" style="opacity: 1;" transform="translate(1.88976377952756, 54.38976377952756)"><text class="legendtext user-select-none" text-anchor="start" style="font-family: TOBESTRIPPEDOpen SansTOBESTRIPPED, verdana, arial, sans-serif; font-size: 11.6895px; fill: rgb(0, 0, 0); fill-opacity: 1; white-space: pre;" x="40" y="4.55890410958905">MAC C</text><g class="layers" style="opacity: 1;"><g class="legendfill"/><g class="legendlines"><path class="js-line" d="M5,0h30" style="fill: none; stroke: rgb(0, 186, 56); stroke-opacity: 1; stroke-width: 1.88976px;"/></g><g class="legendsymbols"><g class="legendpoints"/></g></g><rect class="legendtoggle" style="cursor: pointer; fill: rgb(0, 0, 0); fill-opacity: 0;" pointer-events="all" x="0" y="-9.5" width="79.06666564941406" height="19"/></g></g><g class="groups" transform="translate(0, 30)"><g class="traces" style="opacity: 1;" transform="translate(1.88976377952756, 73.38976377952756)"><text class="legendtext user-select-none" text-anchor="start" style="font-family: TOBESTRIPPEDOpen SansTOBESTRIPPED, verdana, arial, sans-serif; font-size: 11.6895px; fill: rgb(0, 0, 0); fill-opacity: 1; white-space: pre;" x="40" y="4.55890410958905">MO A</text><g class="layers" style="opacity: 1;"><g class="legendfill"/><g class="legendlines"><path class="js-line" d="M5,0h30" style="fill: none; stroke: rgb(0, 191, 196); stroke-opacity: 1; stroke-width: 1.88976px;"/></g><g class="legendsymbols"><g class="legendpoints"/></g></g><rect class="legendtoggle" style="cursor: pointer; fill: rgb(0, 0, 0); fill-opacity: 0;" pointer-events="all" x="0" y="-9.5" width="79.06666564941406" height="19"/></g></g><g class="groups" transform="translate(0, 40)"><g class="traces" style="opacity: 1;" transform="translate(1.88976377952756, 92.38976377952756)"><text class="legendtext user-select-none" text-anchor="start" style="font-family: TOBESTRIPPEDOpen SansTOBESTRIPPED, verdana, arial, sans-serif; font-size: 11.6895px; fill: rgb(0, 0, 0); fill-opacity: 1; white-space: pre;" x="40" y="4.55890410958905">MO B</text><g class="layers" style="opacity: 1;"><g class="legendfill"/><g class="legendlines"><path class="js-line" d="M5,0h30" style="fill: none; stroke: rgb(97, 156, 255); stroke-opacity: 1; stroke-width: 1.88976px;"/></g><g class="legendsymbols"><g class="legendpoints"/></g></g><rect class="legendtoggle" style="cursor: pointer; fill: rgb(0, 0, 0); fill-opacity: 0;" pointer-events="all" x="0" y="-9.5" width="79.06666564941406" height="19"/></g></g><g class="groups" transform="translate(0, 50)"><g class="traces" style="opacity: 1;" transform="translate(1.88976377952756, 111.38976377952756)"><text class="legendtext user-select-none" text-anchor="start" style="font-family: TOBESTRIPPEDOpen SansTOBESTRIPPED, verdana, arial, sans-serif; font-size: 11.6895px; fill: rgb(0, 0, 0); fill-opacity: 1; white-space: pre;" x="40" y="4.55890410958905">MO C</text><g class="layers" style="opacity: 1;"><g class="legendfill"/><g class="legendlines"><path class="js-line" d="M5,0h30" style="fill: none; stroke: rgb(245, 100, 227); stroke-opacity: 1; stroke-width: 1.88976px;"/></g><g class="legendsymbols"><g class="legendpoints"/></g></g><rect class="legendtoggle" style="cursor: pointer; fill: rgb(0, 0, 0); fill-opacity: 0;" pointer-events="all" x="0" y="-9.5" width="79.06666564941406" height="19"/></g></g></g><rect class="scrollbar" rx="20" ry="3" width="0" height="0" style="fill: rgb(128, 139, 164); fill-opacity: 1;" x="0" y="0"/></g><g class="g-gtitle"/><g class="g-xtitle" transform="translate(0,-14.402541487184237)"><text class="xtitle" style="font-family: TOBESTRIPPEDOpen SansTOBESTRIPPED, verdana, arial, sans-serif; font-size: 14.61px; fill: rgb(0, 0, 0); opacity: 1; font-weight: normal; white-space: pre;" x="315.5" y="457.8356164383561" text-anchor="middle">Bvalues</text></g><g class="g-ytitle" transform="translate(20.0498046875,0)"><text class="ytitle" transform="rotate(-90,-2.2237442922373987,214)" style="font-family: TOBESTRIPPEDOpen SansTOBESTRIPPED, verdana, arial, sans-serif; font-size: 14.61px; fill: rgb(0, 0, 0); opacity: 1; font-weight: normal; white-space: pre;" x="-2.2237442922373987" y="214" text-anchor="middle">density</text></g><g class="annotation" data-index="0" style="opacity: 1;"><g class="annotation-text-g" transform="rotate(0,633.64,9.999999999999998)"><g class="cursor-pointer" transform="translate(605, -4)"><rect class="bg" style="stroke-width: 1px; stroke: rgb(0, 0, 0); stroke-opacity: 0; fill: rgb(0, 0, 0); fill-opacity: 0;" x="0.5" y="0.5" width="56" height="27"/><text class="annotation-text" style="font-family: TOBESTRIPPEDOpen SansTOBESTRIPPED, verdana, arial, sans-serif; font-size: 14.6119px; fill: rgb(0, 0, 0); fill-opacity: 1; white-space: pre;" text-anchor="middle" x="28.349609375" y="19.81640625">sample</text></g></g></g></g></svg>