<svg class="main-svg" xmlns="http://www.w3.org/2000/svg" xmlns:xlink="http://www.w3.org/1999/xlink" width="700" height="450" style="" viewBox="0 0 700 450"><rect x="0" y="0" width="700" height="450" style="fill: rgb(255, 255, 255); fill-opacity: 1;"/><defs id="defs-382deb"><g class="clips"><clipPath id="clip382debxyplot" class="plotclip"><rect width="556" height="380"/></clipPath><clipPath class="axesclip" id="clip382debx"><rect x="48" y="0" width="556" height="450"/></clipPath><clipPath class="axesclip" id="clip382deby"><rect x="0" y="24" width="700" height="380"/></clipPath><clipPath class="axesclip" id="clip382debxy"><rect x="48" y="24" width="556" height="380"/></clipPath></g><g class="gradients"/></defs><g class="bglayer"/><g class="layer-below"><g class="imagelayer"/><g class="shapelayer"/></g><g class="cartesianlayer"><g class="subplot xy"><g class="layer-subplot"><g class="shapelayer"/><g class="imagelayer"/></g><g class="gridlayer"><g class="x"><path class="xgrid crisp" transform="translate(174.31,0)" d="M0,24v380" style="stroke: rgb(235, 235, 235); stroke-opacity: 1; stroke-width: 0.664176px;"/><path class="xgrid crisp" transform="translate(329.02,0)" d="M0,24v380" style="stroke: rgb(235, 235, 235); stroke-opacity: 1; stroke-width: 0.664176px;"/><path class="xgrid crisp" transform="translate(483.73,0)" d="M0,24v380" style="stroke: rgb(235, 235, 235); stroke-opacity: 1; stroke-width: 0.664176px;"/></g><g class="y"><path class="ygrid crisp" transform="translate(0,393.99)" d="M48,0h556" style="stroke: rgb(235, 235, 235); stroke-opacity: 1; stroke-width: 0.664176px;"/><path class="ygrid crisp" transform="translate(0,298.06)" d="M48,0h556" style="stroke: rgb(235, 235, 235); stroke-opacity: 1; stroke-width: 0.664176px;"/><path class="ygrid crisp" transform="translate(0,202.13)" d="M48,0h556" style="stroke: rgb(235, 235, 235); stroke-opacity: 1; stroke-width: 0.664176px;"/><path class="ygrid crisp" transform="translate(0,106.21)" d="M48,0h556" style="stroke: rgb(235, 235, 235); stroke-opacity: 1; stroke-width: 0.664176px;"/></g></g><g class="zerolinelayer"/><path class="xlines-below"/><path class="ylines-below"/><g class="overlines-below"/><g class="xaxislayer-below"/><g class="yaxislayer-below"/><g class="overaxes-below"/><g class="plot" transform="translate(48, 24)" clip-path="url('#clip382debxyplot')"><g class="scatterlayer mlayer"><g class="trace scatter traceab6ea1" style="stroke-miterlimit: 2; opacity: 1;"><g class="fills"/><g class="errorbars"/><g class="lines"/><g class="points"><path class="point" transform="translate(479.04,235.23)" style="opacity: 1; stroke-width: 1.88976px; fill: rgb(248, 118, 109); fill-opacity: 1; stroke: rgb(248, 118, 109); stroke-opacity: 1;" d="M5.67,0A5.67,5.67 0 1,1 0,-5.67A5.67,5.67 0 0,1 5.67,0Z"/><path class="point" transform="translate(530.73,67.64)" style="opacity: 1; stroke-width: 1.88976px; fill: rgb(248, 118, 109); fill-opacity: 1; stroke: rgb(248, 118, 109); stroke-opacity: 1;" d="M5.67,0A5.67,5.67 0 1,1 0,-5.67A5.67,5.67 0 0,1 5.67,0Z"/><path class="point" transform="translate(343.14,362.73)" style="opacity: 1; stroke-width: 1.88976px; fill: rgb(248, 118, 109); fill-opacity: 1; stroke: rgb(248, 118, 109); stroke-opacity: 1;" d="M5.67,0A5.67,5.67 0 1,1 0,-5.67A5.67,5.67 0 0,1 5.67,0Z"/></g><g class="text"/></g><g class="trace scatter trace79df13" style="stroke-miterlimit: 2; opacity: 1;"><g class="fills"/><g class="errorbars"/><g class="lines"/><g class="points"><path class="point" transform="translate(25.27,226.06)" style="opacity: 1; stroke-width: 1.88976px; fill: rgb(0, 191, 196); fill-opacity: 1; stroke: rgb(0, 191, 196); stroke-opacity: 1;" d="M5.67,0A5.67,5.67 0 1,1 0,-5.67A5.67,5.67 0 0,1 5.67,0Z"/><path class="point" transform="translate(114.09,159.87)" style="opacity: 1; stroke-width: 1.88976px; fill: rgb(0, 191, 196); fill-opacity: 1; stroke: rgb(0, 191, 196); stroke-opacity: 1;" d="M5.67,0A5.67,5.67 0 1,1 0,-5.67A5.67,5.67 0 0,1 5.67,0Z"/><path class="point" transform="translate(193.83,17.27)" style="opacity: 1; stroke-width: 1.88976px; fill: rgb(0, 191, 196); fill-opacity: 1; stroke: rgb(0, 191, 196); stroke-opacity: 1;" d="M5.67,0A5.67,5.67 0 1,1 0,-5.67A5.67,5.67 0 0,1 5.67,0Z"/></g><g class="text"/></g></g></g><g class="overplot"/><path class="xlines-above crisp" style="fill: none; stroke-width: 1px; stroke: rgb(0, 0, 0); stroke-opacity: 0;" d=""/><path class="ylines-above crisp" style="fill: none; stroke-width: 1px; stroke: rgb(0, 0, 0); stroke-opacity: 0;" d=""/><g class="overlines-above"/><g class="xaxislayer-above"><path class="xtick ticks crisp" style="stroke: rgb(51, 51, 51); stroke-opacity: 1; stroke-width: 0.664176px;" d="M0,405v3.65296803652968" transform="translate(174.31,0)"/><path class="xtick ticks crisp" style="stroke: rgb(51, 51, 51); stroke-opacity: 1; stroke-width: 0.664176px;" d="M0,405v3.65296803652968" transform="translate(329.02,0)"/><path class="xtick ticks crisp" style="stroke: rgb(51, 51, 51); stroke-opacity: 1; stroke-width: 0.664176px;" d="M0,405v3.65296803652968" transform="translate(483.73,0)"/><g class="xtick"><text text-anchor="middle" x="0" y="422.6803652968037" style="font-family: TOBESTRIPPEDOpen SansTOBESTRIPPED, verdana, arial, sans-serif; font-size: 11.6895px; fill: rgb(77, 77, 77); fill-opacity: 1; white-space: pre;" transform="translate(174.31,0)">-10</text></g><g class="xtick"><text text-anchor="middle" x="0" y="422.6803652968037" style="font-family: TOBESTRIPPEDOpen SansTOBESTRIPPED, verdana, arial, sans-serif; font-size: 11.6895px; fill: rgb(77, 77, 77); fill-opacity: 1; white-space: pre;" transform="translate(329.02,0)">0</text></g><g class="xtick"><text text-anchor="middle" x="0" y="422.6803652968037" style="font-family: TOBESTRIPPEDOpen SansTOBESTRIPPED, verdana, arial, sans-serif; font-size: 11.6895px; fill: rgb(77, 77, 77); fill-opacity: 1; white-space: pre;" transform="translate(483.73,0)">10</text></g></g><g class="yaxislayer-above"><path class="ytick ticks crisp" style="stroke: rgb(51, 51, 51); stroke-opacity: 1; stroke-width: 0.664176px;" d="M47,0h-3.65296803652968" transform="translate(0,393.99)"/><path class="ytick ticks crisp" style="stroke: rgb(51, 51, 51); stroke-opacity: 1; stroke-width: 0.664176px;" d="M47,0h-3.65296803652968" transform="translate(0,298.06)"/><path class="ytick ticks crisp" style="stroke: rgb(51, 51, 51); stroke-opacity: 1; stroke-width: 0.664176px;" d="M47,0h-3.65296803652968" transform="translate(0,202.13)"/><path class="ytick ticks crisp" style="stroke: rgb(51, 51, 51); stroke-opacity: 1; stroke-width: 0.664176px;" d="M47,0h-3.65296803652968" transform="translate(0,106.21)"/><g class="ytick"><text text-anchor="end" x="41.00913242009132" y="4.09132420091325" style="font-family: TOBESTRIPPEDOpen SansTOBESTRIPPED, verdana, arial, sans-serif; font-size: 11.6895px; fill: rgb(77, 77, 77); fill-opacity: 1; white-space: pre;" transform="translate(0,393.99)">-20</text></g><g class="ytick"><text text-anchor="end" x="41.00913242009132" y="4.09132420091325" style="font-family: TOBESTRIPPEDOpen SansTOBESTRIPPED, verdana, arial, sans-serif; font-size: 11.6895px; fill: rgb(77, 77, 77); fill-opacity: 1; white-space: pre;" transform="translate(0,298.06)">-10</text></g><g class="ytick"><text text-anchor="end" x="41.00913242009132" y="4.09132420091325" style="font-family: TOBESTRIPPEDOpen SansTOBESTRIPPED, verdana, arial, sans-serif; font-size: 11.6895px; fill: rgb(77, 77, 77); fill-opacity: 1; white-space: pre;" transform="translate(0,202.13)">0</text></g><g class="ytick"><text text-anchor="end" x="41.00913242009132" y="4.09132420091325" style="font-family: TOBESTRIPPEDOpen SansTOBESTRIPPED, verdana, arial, sans-serif; font-size: 11.6895px; fill: rgb(77, 77, 77); fill-opacity: 1; white-space: pre;" transform="translate(0,106.21)">10</text></g></g><g class="overaxes-above"/></g></g><g class="polarlayer"/><g class="ternarylayer"/><g class="geolayer"/><g class="funnelarealayer"/><g class="pielayer"/><g class="treemaplayer"/><g class="sunburstlayer"/><g class="glimages"/><defs id="topdefs-382deb"><g class="clips"/><clipPath id="legend382deb"><rect width="74.22047244094487" height="58.22047244094488" x="1.88976377952756" y="1.88976377952756"/></clipPath></defs><g class="layer-above"><g class="imagelayer"/><g class="shapelayer"><path data-index="0" fill-rule="evenodd" d="M48,404H604V24H48Z" style="opacity: 1; stroke: rgb(51, 51, 51); stroke-opacity: 1; fill: rgb(0, 0, 0); fill-opacity: 0; stroke-width: 0.664176px;"/></g></g><g class="infolayer"><g class="legend" pointer-events="all" transform="translate(615.12, 61.02755905511821)"><rect class="bg" shape-rendering="crispEdges" style="stroke: rgb(0, 0, 0); stroke-opacity: 0; fill: rgb(255, 255, 255); fill-opacity: 1; stroke-width: 1.88976px;" width="76.11023622047244" height="60.11023622047244" x="0.94488188976378" y="0.94488188976378"/><g class="scrollbox" transform="translate(0, 0)" clip-path="url('#legend382deb')"><g class="groups" transform="translate(0, 0)"><g class="traces" style="opacity: 1;" transform="translate(1.88976377952756, 16.38976377952756)"><text class="legendtext user-select-none" text-anchor="start" style="font-family: TOBESTRIPPEDOpen SansTOBESTRIPPED, verdana, arial, sans-serif; font-size: 11.6895px; fill: rgb(0, 0, 0); fill-opacity: 1; white-space: pre;" x="40" y="4.55890410958905">MAC</text><g class="layers" style="opacity: 1;"><g class="legendfill"/><g class="legendlines"/><g class="legendsymbols"><g class="legendpoints"><path class="scatterpts" transform="translate(20,0)" style="opacity: 1; stroke-width: 1.88976px; fill: rgb(248, 118, 109); fill-opacity: 1; stroke: rgb(248, 118, 109); stroke-opacity: 1;" d="M5.67,0A5.67,5.67 0 1,1 0,-5.67A5.67,5.67 0 0,1 5.67,0Z"/></g></g></g><rect class="legendtoggle" style="cursor: pointer; fill: rgb(0, 0, 0); fill-opacity: 0;" pointer-events="all" x="0" y="-9.5" width="68.43333435058594" height="19"/></g></g><g class="groups" transform="translate(0, 10)"><g class="traces" style="opacity: 1;" transform="translate(1.88976377952756, 35.389763779527556)"><text class="legendtext user-select-none" text-anchor="start" style="font-family: TOBESTRIPPEDOpen SansTOBESTRIPPED, verdana, arial, sans-serif; font-size: 11.6895px; fill: rgb(0, 0, 0); fill-opacity: 1; white-space: pre;" x="40" y="4.55890410958905">MO</text><g class="layers" style="opacity: 1;"><g class="legendfill"/><g class="legendlines"/><g class="legendsymbols"><g class="legendpoints"><path class="scatterpts" transform="translate(20,0)" style="opacity: 1; stroke-width: 1.88976px; fill: rgb(0, 191, 196); fill-opacity: 1; stroke: rgb(0, 191, 196); stroke-opacity: 1;" d="M5.67,0A5.67,5.67 0 1,1 0,-5.67A5.67,5.67 0 0,1 5.67,0Z"/></g></g></g><rect class="legendtoggle" style="cursor: pointer; fill: rgb(0, 0, 0); fill-opacity: 0;" pointer-events="all" x="0" y="-9.5" width="68.43333435058594" height="19"/></g></g></g><rect class="scrollbar" rx="20" ry="3" width="0" height="0" style="fill: rgb(128, 139, 164); fill-opacity: 1;" x="0" y="0"/></g><g class="g-gtitle"/><g class="g-xtitle" transform="translate(0,-14.402541487184237)"><text class="xtitle" style="font-family: TOBESTRIPPEDOpen SansTOBESTRIPPED, verdana, arial, sans-serif; font-size: 14.61px; fill: rgb(0, 0, 0); opacity: 1; font-weight: normal; white-space: pre;" x="326" y="457.8356164383561" text-anchor="middle">PC2</text></g><g class="g-ytitle" transform="translate(9.0498046875,0)"><text class="ytitle" transform="rotate(-90,8.776255707762601,214)" style="font-family: TOBESTRIPPEDOpen SansTOBESTRIPPED, verdana, arial, sans-serif; font-size: 14.61px; fill: rgb(0, 0, 0); opacity: 1; font-weight: normal; white-space: pre;" x="8.776255707762601" y="214" text-anchor="middle">PC3</text></g><g class="annotation" data-index="0" style="opacity: 1;"><g class="annotation-text-g" transform="rotate(0,669.12,9.999999999999996)"><g class="cursor-pointer" transform="translate(615, -4)"><rect class="bg" style="stroke-width: 1px; stroke: rgb(0, 0, 0); stroke-opacity: 0; fill: rgb(0, 0, 0); fill-opacity: 0;" x="0.5" y="0.5" width="107" height="27"/><text class="annotation-text" style="font-family: TOBESTRIPPEDOpen SansTOBESTRIPPED, verdana, arial, sans-serif; font-size: 14.6119px; fill: rgb(0, 0, 0); fill-opacity: 1; white-space: pre;" text-anchor="middle" x="53.8330078125" y="19.81640625">Sample_Group</text></g></g></g></g></svg>