<svg class="main-svg" xmlns="http://www.w3.org/2000/svg" xmlns:xlink="http://www.w3.org/1999/xlink" width="700" height="450" style="" viewBox="0 0 700 450"><rect x="0" y="0" width="700" height="450" style="fill: rgb(255, 255, 255); fill-opacity: 1;"/><defs id="defs-b77e62"><g class="clips"><clipPath id="clipb77e62xyplot" class="plotclip"><rect width="559" height="380"/></clipPath><clipPath class="axesclip" id="clipb77e62x"><rect x="60" y="0" width="559" height="450"/></clipPath><clipPath class="axesclip" id="clipb77e62y"><rect x="0" y="24" width="700" height="380"/></clipPath><clipPath class="axesclip" id="clipb77e62xy"><rect x="60" y="24" width="559" height="380"/></clipPath></g><g class="gradients"/></defs><g class="bglayer"/><g class="layer-below"><g class="imagelayer"/><g class="shapelayer"/></g><g class="cartesianlayer"><g class="subplot xy"><g class="layer-subplot"><g class="shapelayer"/><g class="imagelayer"/></g><g class="gridlayer"><g class="x"><path class="xgrid crisp" transform="translate(123.38,0)" d="M0,24v380" style="stroke: rgb(235, 235, 235); stroke-opacity: 1; stroke-width: 0.664176px;"/><path class="xgrid crisp" transform="translate(251.79,0)" d="M0,24v380" style="stroke: rgb(235, 235, 235); stroke-opacity: 1; stroke-width: 0.664176px;"/><path class="xgrid crisp" transform="translate(380.2,0)" d="M0,24v380" style="stroke: rgb(235, 235, 235); stroke-opacity: 1; stroke-width: 0.664176px;"/><path class="xgrid crisp" transform="translate(508.61,0)" d="M0,24v380" style="stroke: rgb(235, 235, 235); stroke-opacity: 1; stroke-width: 0.664176px;"/></g><g class="y"><path class="ygrid crisp" transform="translate(0,390.51)" d="M60,0h559" style="stroke: rgb(235, 235, 235); stroke-opacity: 1; stroke-width: 0.664176px;"/><path class="ygrid crisp" transform="translate(0,283.87)" d="M60,0h559" style="stroke: rgb(235, 235, 235); stroke-opacity: 1; stroke-width: 0.664176px;"/><path class="ygrid crisp" transform="translate(0,177.23)" d="M60,0h559" style="stroke: rgb(235, 235, 235); stroke-opacity: 1; stroke-width: 0.664176px;"/><path class="ygrid crisp" transform="translate(0,70.58)" d="M60,0h559" style="stroke: rgb(235, 235, 235); stroke-opacity: 1; stroke-width: 0.664176px;"/></g></g><g class="zerolinelayer"/><path class="xlines-below"/><path class="ylines-below"/><g class="overlines-below"/><g class="xaxislayer-below"/><g class="yaxislayer-below"/><g class="overaxes-below"/><g class="plot" transform="translate(60, 24)" clip-path="url('#clipb77e62xyplot')"><g class="scatterlayer mlayer"><g class="trace scatter trace42faa9" style="stroke-miterlimit: 2; opacity: 1;"><g class="fills"/><g class="errorbars"/><g class="lines"/><g class="points"><path class="point" transform="translate(533.59,105.37)" style="opacity: 1; stroke-width: 1.88976px; fill: rgb(248, 118, 109); fill-opacity: 1; stroke: rgb(248, 118, 109); stroke-opacity: 1;" d="M3.78,0A3.78,3.78 0 1,1 0,-3.78A3.78,3.78 0 0,1 3.78,0Z"/><path class="point" transform="translate(331.44,118.9)" style="opacity: 1; stroke-width: 1.88976px; fill: rgb(248, 118, 109); fill-opacity: 1; stroke: rgb(248, 118, 109); stroke-opacity: 1;" d="M3.78,0A3.78,3.78 0 1,1 0,-3.78A3.78,3.78 0 0,1 3.78,0Z"/><path class="point" transform="translate(391.21,187.89)" style="opacity: 1; stroke-width: 1.88976px; fill: rgb(248, 118, 109); fill-opacity: 1; stroke: rgb(248, 118, 109); stroke-opacity: 1;" d="M3.78,0A3.78,3.78 0 1,1 0,-3.78A3.78,3.78 0 0,1 3.78,0Z"/><path class="point" transform="translate(480.21,17.27)" style="opacity: 1; stroke-width: 1.88976px; fill: rgb(248, 118, 109); fill-opacity: 1; stroke: rgb(248, 118, 109); stroke-opacity: 1;" d="M3.78,0A3.78,3.78 0 1,1 0,-3.78A3.78,3.78 0 0,1 3.78,0Z"/><path class="point" transform="translate(267.25,362.73)" style="opacity: 1; stroke-width: 1.88976px; fill: rgb(248, 118, 109); fill-opacity: 1; stroke: rgb(248, 118, 109); stroke-opacity: 1;" d="M3.78,0A3.78,3.78 0 1,1 0,-3.78A3.78,3.78 0 0,1 3.78,0Z"/><path class="point" transform="translate(25.41,255.88)" style="opacity: 1; stroke-width: 1.88976px; fill: rgb(248, 118, 109); fill-opacity: 1; stroke: rgb(248, 118, 109); stroke-opacity: 1;" d="M3.78,0A3.78,3.78 0 1,1 0,-3.78A3.78,3.78 0 0,1 3.78,0Z"/></g><g class="text"/></g><g class="trace scatter tracecaab9a" style="stroke-miterlimit: 2; opacity: 1;"><g class="fills"/><g class="errorbars"/><g class="lines"><path class="js-line" style="vector-effect: non-scaling-stroke; fill: none; stroke: rgb(169, 169, 169); stroke-opacity: 1; stroke-width: 1.88976px; opacity: 1; stroke-dasharray: 9px, 9px;" d="M0,7980L559,7980"/></g><g class="points"/><g class="text"/></g></g></g><g class="overplot"/><path class="xlines-above crisp" style="fill: none; stroke-width: 1px; stroke: rgb(0, 0, 0); stroke-opacity: 0;" d=""/><path class="ylines-above crisp" style="fill: none; stroke-width: 1px; stroke: rgb(0, 0, 0); stroke-opacity: 0;" d=""/><g class="overlines-above"/><g class="xaxislayer-above"><path class="xtick ticks crisp" style="stroke: rgb(51, 51, 51); stroke-opacity: 1; stroke-width: 0.664176px;" d="M0,405v3.65296803652968" transform="translate(123.38,0)"/><path class="xtick ticks crisp" style="stroke: rgb(51, 51, 51); stroke-opacity: 1; stroke-width: 0.664176px;" d="M0,405v3.65296803652968" transform="translate(251.79,0)"/><path class="xtick ticks crisp" style="stroke: rgb(51, 51, 51); stroke-opacity: 1; stroke-width: 0.664176px;" d="M0,405v3.65296803652968" transform="translate(380.2,0)"/><path class="xtick ticks crisp" style="stroke: rgb(51, 51, 51); stroke-opacity: 1; stroke-width: 0.664176px;" d="M0,405v3.65296803652968" transform="translate(508.61,0)"/><g class="xtick"><text text-anchor="middle" x="0" y="422.6803652968037" style="font-family: TOBESTRIPPEDOpen SansTOBESTRIPPED, verdana, arial, sans-serif; font-size: 11.6895px; fill: rgb(77, 77, 77); fill-opacity: 1; white-space: pre;" transform="translate(123.38,0)">12.645</text></g><g class="xtick"><text text-anchor="middle" x="0" y="422.6803652968037" style="font-family: TOBESTRIPPEDOpen SansTOBESTRIPPED, verdana, arial, sans-serif; font-size: 11.6895px; fill: rgb(77, 77, 77); fill-opacity: 1; white-space: pre;" transform="translate(251.79,0)">12.650</text></g><g class="xtick"><text text-anchor="middle" x="0" y="422.6803652968037" style="font-family: TOBESTRIPPEDOpen SansTOBESTRIPPED, verdana, arial, sans-serif; font-size: 11.6895px; fill: rgb(77, 77, 77); fill-opacity: 1; white-space: pre;" transform="translate(380.2,0)">12.655</text></g><g class="xtick"><text text-anchor="middle" x="0" y="422.6803652968037" style="font-family: TOBESTRIPPEDOpen SansTOBESTRIPPED, verdana, arial, sans-serif; font-size: 11.6895px; fill: rgb(77, 77, 77); fill-opacity: 1; white-space: pre;" transform="translate(508.61,0)">12.660</text></g></g><g class="yaxislayer-above"><path class="ytick ticks crisp" style="stroke: rgb(51, 51, 51); stroke-opacity: 1; stroke-width: 0.664176px;" d="M59,0h-3.65296803652968" transform="translate(0,390.51)"/><path class="ytick ticks crisp" style="stroke: rgb(51, 51, 51); stroke-opacity: 1; stroke-width: 0.664176px;" d="M59,0h-3.65296803652968" transform="translate(0,283.87)"/><path class="ytick ticks crisp" style="stroke: rgb(51, 51, 51); stroke-opacity: 1; stroke-width: 0.664176px;" d="M59,0h-3.65296803652968" transform="translate(0,177.23)"/><path class="ytick ticks crisp" style="stroke: rgb(51, 51, 51); stroke-opacity: 1; stroke-width: 0.664176px;" d="M59,0h-3.65296803652968" transform="translate(0,70.58)"/><g class="ytick"><text text-anchor="end" x="53.00913242009132" y="4.09132420091325" style="font-family: TOBESTRIPPEDOpen SansTOBESTRIPPED, verdana, arial, sans-serif; font-size: 11.6895px; fill: rgb(77, 77, 77); fill-opacity: 1; white-space: pre;" transform="translate(0,390.51)">12.92</text></g><g class="ytick"><text text-anchor="end" x="53.00913242009132" y="4.09132420091325" style="font-family: TOBESTRIPPEDOpen SansTOBESTRIPPED, verdana, arial, sans-serif; font-size: 11.6895px; fill: rgb(77, 77, 77); fill-opacity: 1; white-space: pre;" transform="translate(0,283.87)">12.94</text></g><g class="ytick"><text text-anchor="end" x="53.00913242009132" y="4.09132420091325" style="font-family: TOBESTRIPPEDOpen SansTOBESTRIPPED, verdana, arial, sans-serif; font-size: 11.6895px; fill: rgb(77, 77, 77); fill-opacity: 1; white-space: pre;" transform="translate(0,177.23)">12.96</text></g><g class="ytick"><text text-anchor="end" x="53.00913242009132" y="4.09132420091325" style="font-family: TOBESTRIPPEDOpen SansTOBESTRIPPED, verdana, arial, sans-serif; font-size: 11.6895px; fill: rgb(77, 77, 77); fill-opacity: 1; white-space: pre;" transform="translate(0,70.58)">12.98</text></g></g><g class="overaxes-above"/></g></g><g class="polarlayer"/><g class="ternarylayer"/><g class="geolayer"/><g class="funnelarealayer"/><g class="pielayer"/><g class="treemaplayer"/><g class="sunburstlayer"/><g class="glimages"/><defs id="topdefs-b77e62"><g class="clips"/><clipPath id="legendb77e62"><rect width="59.22047244094488" height="29.22047244094488" x="1.88976377952756" y="1.88976377952756"/></clipPath></defs><g class="layer-above"><g class="imagelayer"/><g class="shapelayer"><path data-index="0" fill-rule="evenodd" d="M60,404H619V24H60Z" style="opacity: 1; stroke: rgb(51, 51, 51); stroke-opacity: 1; fill: rgb(0, 0, 0); fill-opacity: 0; stroke-width: 0.664176px;"/></g></g><g class="infolayer"><g class="legend" pointer-events="all" transform="translate(630.1800000000001, 61.02755905511821)"><rect class="bg" shape-rendering="crispEdges" style="stroke: rgb(0, 0, 0); stroke-opacity: 0; fill: rgb(255, 255, 255); fill-opacity: 1; stroke-width: 1.88976px;" width="61.11023622047244" height="31.11023622047244" x="0.94488188976378" y="0.94488188976378"/><g class="scrollbox" transform="translate(0, 0)" clip-path="url('#legendb77e62')"><g class="groups" transform="translate(0, 0)"><g class="traces" style="opacity: 1;" transform="translate(1.88976377952756, 16.38976377952756)"><text class="legendtext user-select-none" text-anchor="start" style="font-family: TOBESTRIPPEDOpen SansTOBESTRIPPED, verdana, arial, sans-serif; font-size: 11.6895px; fill: rgb(0, 0, 0); fill-opacity: 1; white-space: pre;" x="40" y="4.55890410958905">M</text><g class="layers" style="opacity: 1;"><g class="legendfill"/><g class="legendlines"/><g class="legendsymbols"><g class="legendpoints"><path class="scatterpts" transform="translate(20,0)" style="opacity: 1; stroke-width: 1.88976px; fill: rgb(248, 118, 109); fill-opacity: 1; stroke: rgb(248, 118, 109); stroke-opacity: 1;" d="M3.78,0A3.78,3.78 0 1,1 0,-3.78A3.78,3.78 0 0,1 3.78,0Z"/></g></g></g><rect class="legendtoggle" style="cursor: pointer; fill: rgb(0, 0, 0); fill-opacity: 0;" pointer-events="all" x="0" y="-9.5" width="53.71665954589844" height="19"/></g></g></g><rect class="scrollbar" rx="20" ry="3" width="0" height="0" style="fill: rgb(128, 139, 164); fill-opacity: 1;" x="0" y="0"/></g><g class="g-gtitle"/><g class="g-xtitle" transform="translate(0,-14.402541487184237)"><text class="xtitle" style="font-family: TOBESTRIPPEDOpen SansTOBESTRIPPED, verdana, arial, sans-serif; font-size: 14.61px; fill: rgb(0, 0, 0); opacity: 1; font-weight: normal; white-space: pre;" x="339.5" y="457.8356164383561" text-anchor="middle">xMed</text></g><g class="g-ytitle"><text class="ytitle" transform="rotate(-90,20.7762557077626,214)" style="font-family: TOBESTRIPPEDOpen SansTOBESTRIPPED, verdana, arial, sans-serif; font-size: 14.61px; fill: rgb(0, 0, 0); opacity: 1; font-weight: normal; white-space: pre;" x="20.7762557077626" y="214" text-anchor="middle">yMed</text></g><g class="annotation" data-index="0" style="opacity: 1;"><g class="annotation-text-g" transform="rotate(0,678.1800000000001,9.999999999999996)"><g class="cursor-pointer" transform="translate(630, -4)"><rect class="bg" style="stroke-width: 1px; stroke: rgb(0, 0, 0); stroke-opacity: 0; fill: rgb(0, 0, 0); fill-opacity: 0;" x="0.5" y="0.5" width="95" height="27"/><text class="annotation-text" style="font-family: TOBESTRIPPEDOpen SansTOBESTRIPPED, verdana, arial, sans-serif; font-size: 14.6119px; fill: rgb(0, 0, 0); fill-opacity: 1; white-space: pre;" text-anchor="middle" x="48.0166015625" y="19.81640625">predictedSex</text></g></g></g></g></svg>